SplineFontDB: 3.2
FontName: Square-Regular
FullName: Square
FamilyName: Square
Weight: Book
Copyright: Wouter van Oortmerssen
Version: 1.000
ItalicAngle: 0
UnderlinePosition: -256
UnderlineWidth: 128
Ascent: 1792
Descent: 256
InvalidEm: 0
sfntRevision: 0x00010000
LayerCount: 2
Layer: 0 1 "Back" 1
Layer: 1 1 "Fore" 0
XUID: [1021 346 -170007415 2221]
StyleMap: 0x0040
FSType: 0
OS2Version: 3
OS2_WeightWidthSlopeOnly: 0
OS2_UseTypoMetrics: 0
CreationTime: 1380047040
ModificationTime: 1642154965
PfmFamily: 81
TTFWeight: 400
TTFWidth: 5
LineGap: 0
VLineGap: 0
Panose: 0 0 5 4 0 0 0 0 0 4
OS2TypoAscent: 1792
OS2TypoAOffset: 0
OS2TypoDescent: -256
OS2TypoDOffset: 0
OS2TypoLinegap: 0
OS2WinAscent: 1856
OS2WinAOffset: 0
OS2WinDescent: 192
OS2WinDOffset: 0
HheadAscent: 1792
HheadAOffset: 0
HheadDescent: -256
HheadDOffset: 0
OS2SubXSize: 1351
OS2SubYSize: 1351
OS2SubXOff: 0
OS2SubYOff: 220
OS2SupXSize: 1351
OS2SupYSize: 1351
OS2SupXOff: 0
OS2SupYOff: 565
OS2StrikeYSize: 154
OS2StrikeYPos: 640
OS2CapHeight: 1664
OS2XHeight: 1664
OS2Vendor: '    '
OS2CodePages: 00000001.00000000
OS2UnicodeRanges: 00000001.00000000.00000000.00000000
DEI: 91125
ShortTable: maxp 16
  1
  0
  99
  44
  4
  0
  0
  0
  0
  0
  0
  0
  0
  0
  0
  0
EndShort
LangName: 1033 "" "" "Modern" "Square-Regular-2013:9:25" "" "Version 1.000"
Encoding: UnicodeBmp
UnicodeInterp: none
NameList: AGL For New Fonts
DisplaySize: -48
AntiAlias: 1
FitToEm: 0
WinInfo: 0 38 13
BeginChars: 65540 99

StartChar: .notdef
Encoding: 65536 -1 0
Width: 2048
Flags: W
LayerCount: 2
Fore
SplineSet
190 0 m 1,0,-1
 190 1664 l 1,1,-1
 1856 1664 l 1,2,-1
 1856 0 l 1,3,-1
 190 0 l 1,0,-1
352 160 m 1,4,-1
 1696 160 l 1,5,-1
 1696 1504 l 1,6,-1
 352 1504 l 1,7,-1
 352 160 l 1,4,-1
352 1504 m 1,8,-1
 912 832 l 1,9,-1
 352 160 l 1,10,-1
 560 160 l 1,11,-1
 1024 720 l 1,12,-1
 1488 160 l 1,13,-1
 1696 160 l 1,14,-1
 1136 832 l 1,15,-1
 1696 1504 l 1,16,-1
 1488 1504 l 1,17,-1
 1024 944 l 1,18,-1
 560 1504 l 1,19,-1
 352 1504 l 1,8,-1
EndSplineSet
EndChar

StartChar: A
Encoding: 65 65 4
Width: 2048
Flags: W
LayerCount: 2
Fore
SplineSet
192 0 m 1,0,-1
 192 960 l 2,1,2
 192 1664 192 1664 896 1664 c 1,3,4
 1047 1668 1047 1668 1152 1664 c 1,5,6
 1856 1664 1856 1664 1856 960 c 0,7,8
 1856 768 1856 768 1856 0 c 1,9,-1
 1600 0 l 1,10,-1
 1600 704 l 1,11,-1
 448 704 l 1,12,-1
 448 0 l 1,13,-1
 192 0 l 1,0,-1
448 960 m 1,14,-1
 1600 960 l 1,15,-1
 1602 991 l 1,16,17
 1600 1408 1600 1408 1184 1409 c 0,18,19
 1124 1409 1124 1409 873 1410 c 0,20,21
 448 1408 448 1408 447 992 c 0,22,23
 449 961 449 961 448 960 c 1,14,-1
EndSplineSet
EndChar

StartChar: B
Encoding: 66 66 5
Width: 2048
Flags: W
LayerCount: 2
Fore
SplineSet
192 0 m 1,0,-1
 192 1664 l 1,1,-1
 1376 1664 l 2,2,3
 1856 1664 1856 1664 1856 1216 c 0,4,5
 1856 832 1856 832 1536 832 c 1,6,7
 1856 832 1856 832 1856 416 c 128,-1,8
 1856 0 1856 0 1376 0 c 2,9,-1
 192 0 l 1,0,-1
448 1408 m 1,10,-1
 448 960 l 1,11,-1
 1376 960 l 2,12,13
 1600 960 1600 960 1600 1184 c 128,-1,14
 1600 1408 1600 1408 1408 1408 c 0,15,16
 896 1408 896 1408 448 1408 c 1,10,-1
448 704 m 1,17,-1
 448 256 l 1,18,-1
 1408 256 l 2,19,20
 1600 256 1600 256 1600 480 c 128,-1,21
 1600 704 1600 704 1376 704 c 0,22,23
 896 704 896 704 448 704 c 1,17,-1
EndSplineSet
EndChar

StartChar: C
Encoding: 67 67 6
Width: 2048
Flags: W
LayerCount: 2
Fore
SplineSet
1856 1664 m 1,0,-1
 896 1664 l 2,1,2
 192 1663 192 1663 192 960 c 0,3,4
 192 864 192 864 192 704 c 0,5,6
 193 0 193 0 896 0 c 0,7,8
 1344 0 1344 0 1856 0 c 1,9,-1
 1856 256 l 1,10,-1
 864 256 l 2,11,12
 455 257 455 257 448 672 c 0,13,14
 448 800 448 800 448 992 c 0,15,16
 451 1418 451 1418 864 1408 c 1,17,18
 1248 1408 1248 1408 1856 1408 c 1,19,-1
 1856 1664 l 1,0,-1
EndSplineSet
EndChar

StartChar: a
Encoding: 97 97 7
Width: 2048
Flags: W
LayerCount: 2
Fore
SplineSet
288 96 m 1,0,-1
 288 960 l 2,1,2
 288 1568 288 1568 896 1568 c 2,3,4
 896 1568 896 1568 1152 1568 c 0,5,6
 1760 1568 1760 1568 1760 960 c 2,7,8
 1760 960 1760 960 1760 96 c 1,9,-1
 1600 96 l 1,10,-1
 1600 752 l 1,11,-1
 448 752 l 1,12,-1
 448 96 l 1,13,-1
 288 96 l 1,0,-1
448 912 m 1,14,-1
 1600 912 l 1,15,-1
 1602 991 l 1,16,17
 1600 1408 1600 1408 1184 1409 c 0,18,19
 1024 1408 1024 1408 873 1410 c 0,20,21
 448 1408 448 1408 447 992 c 1,22,23
 448 992 448 992 448 912 c 1,14,-1
EndSplineSet
EndChar

StartChar: b
Encoding: 98 98 8
Width: 2048
Flags: W
LayerCount: 2
Fore
SplineSet
288 96 m 1,0,-1
 288 1568 l 1,1,-1
 1376 1568 l 2,2,3
 1760 1568 1760 1568 1760 1184 c 0,4,5
 1760 832 1760 832 1472 832 c 1,6,7
 1760 832 1760 832 1760 464 c 128,-1,8
 1760 96 1760 96 1376 96 c 2,9,-1
 288 96 l 1,0,-1
448 1408 m 1,10,-1
 448 912 l 1,11,-1
 1376 912 l 2,12,13
 1600 912 1600 912 1600 1160 c 128,-1,14
 1600 1408 1600 1408 1408 1408 c 0,15,16
 896 1408 896 1408 448 1408 c 1,10,-1
448 752 m 1,17,-1
 448 256 l 1,18,-1
 1408 256 l 2,19,20
 1600 256 1600 256 1600 504 c 128,-1,21
 1600 752 1600 752 1376 752 c 0,22,23
 896 752 896 752 448 752 c 1,17,-1
EndSplineSet
EndChar

StartChar: O
Encoding: 79 79 9
Width: 2048
Flags: W
LayerCount: 2
Fore
SplineSet
192 960 m 0,0,1
 192 1664 192 1664 896 1664 c 0,2,3
 1024 1664 1024 1664 1152 1664 c 0,4,5
 1856 1664 1856 1664 1856 960 c 0,6,7
 1856 832 1856 832 1856 704 c 0,8,9
 1856 0 1856 0 1152 0 c 0,10,11
 1013 0 1013 0 896 0 c 0,12,13
 192 0 192 0 192 704 c 0,14,15
 192 864 192 864 192 960 c 0,0,1
448 992 m 0,16,17
 448 832 448 832 447 671 c 0,18,19
 448 256 448 256 858 256 c 0,20,21
 1024 256 1024 256 1184 256 c 0,22,23
 1600 256 1600 256 1600 672 c 0,24,25
 1600 800 1600 800 1602 996 c 0,26,27
 1600 1408 1600 1408 1184 1408 c 0,28,29
 1056 1408 1056 1408 864 1408 c 0,30,31
 448 1408 448 1408 448 992 c 0,16,17
EndSplineSet
EndChar

StartChar: o
Encoding: 111 111 11
Width: 2048
Flags: W
LayerCount: 2
Fore
SplineSet
288 960 m 0,0,1
 288 1568 288 1568 896 1568 c 0,2,3
 1024 1568 1024 1568 1152 1568 c 0,4,5
 1760 1568 1760 1568 1760 960 c 0,6,7
 1760 832 1760 832 1760 704 c 0,8,9
 1760 96 1760 96 1152 96 c 0,10,11
 1013 96 1013 96 896 96 c 0,12,13
 288 96 288 96 288 704 c 0,14,15
 288 864 288 864 288 960 c 0,0,1
448 992 m 0,16,17
 448 832 448 832 447 671 c 0,18,19
 448 256 448 256 858 256 c 0,20,21
 1024 256 1024 256 1184 256 c 0,22,23
 1600 256 1600 256 1600 672 c 0,24,25
 1600 800 1600 800 1602 996 c 0,26,27
 1600 1408 1600 1408 1184 1408 c 0,28,29
 1056 1408 1056 1408 864 1408 c 0,30,31
 448 1408 448 1408 448 992 c 0,16,17
EndSplineSet
EndChar

StartChar: D
Encoding: 68 68 12
Width: 2048
Flags: W
LayerCount: 2
Fore
SplineSet
192 0 m 1,0,-1
 192 1664 l 1,1,-1
 1088 1664 l 2,2,3
 1856 1664 1856 1664 1856 832 c 256,4,5
 1856 0 1856 0 1088 0 c 0,6,7
 704 0 704 0 192 0 c 1,0,-1
448 1408 m 1,8,-1
 448 256 l 1,9,-1
 1184 256 l 2,10,11
 1600 256 1600 256 1600 832 c 128,-1,12
 1600 1408 1600 1408 1184 1408 c 0,13,14
 704 1408 704 1408 448 1408 c 1,8,-1
EndSplineSet
EndChar

StartChar: F
Encoding: 70 70 13
Width: 2048
Flags: W
LayerCount: 2
Fore
SplineSet
192 0 m 1,0,-1
 192 1664 l 1,1,-1
 1856 1664 l 1,2,-1
 1856 1408 l 1,3,-1
 448 1408 l 1,4,-1
 448 960 l 1,5,-1
 1600 960 l 1,6,-1
 1600 704 l 1,7,-1
 448 704 l 1,8,-1
 448 0 l 1,9,-1
 192 0 l 1,0,-1
EndSplineSet
EndChar

StartChar: E
Encoding: 69 69 14
Width: 2048
Flags: W
LayerCount: 2
Fore
SplineSet
1856 1664 m 1,0,-1
 896 1664 l 2,1,2
 192 1663 192 1663 192 960 c 0,3,4
 192 864 192 864 192 704 c 0,5,6
 193 0 193 0 896 0 c 0,7,8
 1344 0 1344 0 1856 0 c 1,9,-1
 1856 256 l 1,10,-1
 864 256 l 1,11,12
 455 289 455 289 448 704 c 1,13,14
 1344 704 1344 704 1600 704 c 1,15,16
 1600 832 1600 832 1600 960 c 1,17,18
 1152 960 1152 960 448 960 c 1,19,20
 451 1386 451 1386 864 1408 c 1,21,22
 1248 1408 1248 1408 1856 1408 c 1,23,-1
 1856 1664 l 1,0,-1
EndSplineSet
EndChar

StartChar: G
Encoding: 71 71 15
Width: 2048
Flags: W
LayerCount: 2
Fore
SplineSet
1856 1665 m 1,0,-1
 896 1665 l 2,1,2
 192 1664 192 1664 192 961 c 0,3,4
 192 865 192 865 192 705 c 0,5,6
 193 1 193 1 896 1 c 0,7,8
 1344 1 1344 1 1856 1 c 1,9,-1
 1856 961 l 1,10,-1
 1088 961 l 1,11,-1
 1088 705 l 1,12,-1
 1600 705 l 1,13,-1
 1600 257 l 1,14,-1
 864 257 l 2,15,16
 455 258 455 258 448 673 c 0,17,18
 448 801 448 801 448 993 c 0,19,20
 451 1419 451 1419 864 1409 c 1,21,22
 1248 1409 1248 1409 1856 1409 c 1,23,-1
 1856 1665 l 1,0,-1
EndSplineSet
EndChar

StartChar: H
Encoding: 72 72 16
Width: 2048
Flags: W
LayerCount: 2
Fore
SplineSet
192 0 m 1,0,-1
 192 1664 l 1,1,-1
 448 1664 l 1,2,-1
 448 960 l 1,3,-1
 1600 960 l 1,4,-1
 1600 1664 l 1,5,-1
 1856 1664 l 1,6,-1
 1856 0 l 1,7,-1
 1600 0 l 1,8,-1
 1600 704 l 1,9,-1
 448 704 l 1,10,-1
 448 0 l 1,11,-1
 192 0 l 1,0,-1
EndSplineSet
EndChar

StartChar: I
Encoding: 73 73 17
Width: 2048
Flags: W
LayerCount: 2
Fore
SplineSet
192 0 m 1,0,-1
 192 256 l 1,1,-1
 896 256 l 1,2,-1
 896 1408 l 1,3,-1
 192 1408 l 1,4,-1
 192 1664 l 1,5,-1
 1856 1664 l 1,6,-1
 1856 1408 l 1,7,-1
 1152 1408 l 1,8,-1
 1152 256 l 1,9,-1
 1856 256 l 1,10,-1
 1856 0 l 1,11,-1
 192 0 l 1,0,-1
EndSplineSet
EndChar

StartChar: J
Encoding: 74 74 18
Width: 2048
Flags: W
LayerCount: 2
Fore
SplineSet
192 0 m 1,0,-1
 1152 0 l 2,1,2
 1856 0 1856 0 1856 704 c 0,3,4
 1856 1024 1856 1024 1856 1664 c 1,5,-1
 1600 1664 l 1,6,7
 1600 1152 1600 1152 1600 672 c 0,8,9
 1600 256 1600 256 1184 256 c 2,10,-1
 192 256 l 1,11,-1
 192 0 l 1,0,-1
EndSplineSet
EndChar

StartChar: K
Encoding: 75 75 19
Width: 2048
Flags: W
LayerCount: 2
Fore
SplineSet
192 0 m 1,0,-1
 192 1664 l 1,1,-1
 448 1664 l 1,2,-1
 448 960 l 1,3,-1
 1424 1664 l 1,4,-1
 1856 1664 l 1,5,-1
 720 832 l 1,6,-1
 1856 0 l 1,7,-1
 1424 0 l 1,8,-1
 448 704 l 1,9,-1
 448 0 l 1,10,-1
 192 0 l 1,0,-1
EndSplineSet
EndChar

StartChar: L
Encoding: 76 76 20
Width: 2048
Flags: W
LayerCount: 2
Fore
SplineSet
192 0 m 1,0,-1
 192 1664 l 1,1,-1
 448 1664 l 1,2,-1
 448 256 l 1,3,-1
 1856 256 l 1,4,-1
 1856 0 l 1,5,-1
 192 0 l 1,0,-1
EndSplineSet
EndChar

StartChar: M
Encoding: 77 77 21
Width: 2048
Flags: W
LayerCount: 2
Fore
SplineSet
192 0 m 1,0,-1
 192 1664 l 1,1,-1
 544 1664 l 1,2,-1
 1024 896 l 1,3,-1
 1504 1664 l 1,4,-1
 1856 1664 l 1,5,-1
 1856 0 l 1,6,-1
 1600 0 l 1,7,8
 1600 576 1600 576 1600 1344 c 1,9,10
 1408 1024 1408 1024 1216 704 c 1,11,-1
 832 704 l 1,12,-1
 449 1340 l 1,13,-1
 448 0 l 1,14,-1
 192 0 l 1,0,-1
EndSplineSet
EndChar

StartChar: N
Encoding: 78 78 22
Width: 2048
Flags: W
LayerCount: 2
Fore
SplineSet
192 0 m 1,0,-1
 192 1664 l 1,1,-1
 512 1664 l 1,2,-1
 1600 320 l 1,3,-1
 1600 1664 l 1,4,-1
 1856 1664 l 1,5,-1
 1856 0 l 1,6,-1
 1536 0 l 1,7,-1
 447 1343 l 1,8,-1
 448 0 l 1,9,-1
 192 0 l 1,0,-1
EndSplineSet
EndChar

StartChar: P
Encoding: 80 80 23
Width: 2048
Flags: W
LayerCount: 2
Fore
SplineSet
192 0 m 1,0,-1
 192 1664 l 1,1,-1
 1408 1664 l 2,2,3
 1856 1664 1856 1664 1856 1184 c 128,-1,4
 1856 704 1856 704 1408 704 c 0,5,6
 1280 704 1280 704 448 704 c 1,7,8
 448 576 448 576 448 416 c 128,-1,9
 448 256 448 256 448 0 c 1,10,11
 320 0 320 0 192 0 c 1,0,-1
448 1408 m 1,12,-1
 448 960 l 1,13,-1
 1408 960 l 2,14,15
 1600 960 1600 960 1600 1184 c 128,-1,16
 1600 1408 1600 1408 1408 1408 c 0,17,18
 896 1408 896 1408 448 1408 c 1,12,-1
EndSplineSet
EndChar

StartChar: Q
Encoding: 81 81 24
Width: 2048
Flags: W
LayerCount: 2
Fore
SplineSet
192 960 m 0,0,1
 192 1664 192 1664 896 1664 c 0,2,3
 1024 1664 1024 1664 1152 1664 c 0,4,5
 1856 1664 1856 1664 1856 960 c 0,6,7
 1856 832 1856 832 1856 704 c 1,8,-1
 1808 368 l 1,9,-1
 1760 272 l 1,10,-1
 1856 176 l 1,11,12
 1776 96 1776 96 1680 0 c 1,13,-1
 1584 96 l 1,14,-1
 1520 64 l 1,15,-1
 1152 0 l 1,16,17
 1013 0 1013 0 896 0 c 0,18,19
 192 0 192 0 192 704 c 0,20,21
 192 864 192 864 192 960 c 0,0,1
448 992 m 0,22,23
 448 832 448 832 447 671 c 0,24,25
 448 256 448 256 858 256 c 0,26,27
 1024 256 1024 256 1184 256 c 1,28,-1
 1344 288 l 1,29,-1
 1376 304 l 1,30,-1
 1216 464 l 1,31,32
 1328 576 1328 576 1392 640 c 1,33,-1
 1552 480 l 1,34,-1
 1584 544 l 1,35,-1
 1600 672 l 1,36,37
 1600 800 1600 800 1602 996 c 0,38,39
 1600 1408 1600 1408 1184 1408 c 0,40,41
 1056 1408 1056 1408 864 1408 c 0,42,43
 448 1408 448 1408 448 992 c 0,22,23
EndSplineSet
EndChar

StartChar: R
Encoding: 82 82 25
Width: 2048
Flags: W
LayerCount: 2
Fore
SplineSet
192 0 m 1,0,-1
 192 1664 l 1,1,-1
 1408 1664 l 2,2,3
 1856 1664 1856 1664 1856 1216 c 0,4,5
 1856 704 1856 704 1408 704 c 0,6,7
 1280 704 1280 704 1088 704 c 1,8,-1
 1856 0 l 1,9,-1
 1472 0 l 1,10,-1
 704 704 l 1,11,-1
 448 704 l 1,12,13
 448 576 448 576 448 416 c 128,-1,14
 448 256 448 256 448 0 c 1,15,16
 320 0 320 0 192 0 c 1,0,-1
448 1408 m 1,17,-1
 448 960 l 1,18,-1
 1408 960 l 2,19,20
 1600 960 1600 960 1600 1184 c 128,-1,21
 1600 1408 1600 1408 1408 1408 c 0,22,23
 896 1408 896 1408 448 1408 c 1,17,-1
EndSplineSet
EndChar

StartChar: S
Encoding: 83 83 26
Width: 2048
Flags: W
LayerCount: 2
Fore
SplineSet
1856 1408 m 1,0,-1
 640 1408 l 2,1,2
 448 1408 448 1408 448 1184 c 128,-1,3
 448 960 448 960 640 960 c 2,4,-1
 1408 960 l 2,5,6
 1856 960 1856 960 1856 480 c 128,-1,7
 1856 0 1856 0 1408 0 c 2,8,-1
 192 0 l 1,9,-1
 192 256 l 1,10,-1
 1408 256 l 2,11,12
 1600 256 1600 256 1600 480 c 128,-1,13
 1600 704 1600 704 1408 704 c 2,14,-1
 640 704 l 2,15,16
 192 704 192 704 192 1184 c 128,-1,17
 192 1664 192 1664 640 1664 c 2,18,-1
 1856 1664 l 1,19,-1
 1856 1408 l 1,0,-1
EndSplineSet
EndChar

StartChar: T
Encoding: 84 84 27
Width: 2048
Flags: W
LayerCount: 2
Fore
SplineSet
192 1664 m 1,0,-1
 1856 1664 l 1,1,-1
 1856 1408 l 1,2,-1
 1152 1408 l 1,3,-1
 1152 0 l 1,4,-1
 896 0 l 1,5,-1
 896 1408 l 1,6,-1
 192 1408 l 1,7,-1
 192 1664 l 1,0,-1
EndSplineSet
EndChar

StartChar: U
Encoding: 85 85 28
Width: 2048
Flags: W
LayerCount: 2
Fore
SplineSet
192 1664 m 1,0,-1
 192 672 l 2,1,2
 192 0 192 0 1024 0 c 256,3,4
 1856 0 1856 0 1856 672 c 2,5,-1
 1856 1664 l 1,6,-1
 1600 1664 l 1,7,-1
 1600 640 l 2,8,9
 1600 256 1600 256 1024 256 c 256,10,11
 448 256 448 256 448 640 c 2,12,-1
 448 1664 l 1,13,-1
 192 1664 l 1,0,-1
EndSplineSet
EndChar

StartChar: V
Encoding: 86 86 29
Width: 2048
Flags: W
LayerCount: 2
Fore
SplineSet
192 1664 m 1,0,1
 192 1664 192 1664 832 0 c 1,2,-1
 1216 0 l 1,3,-1
 1856 1664 l 1,4,-1
 1584 1664 l 1,5,-1
 1024 224 l 1,6,7
 1024 224 1024 224 464 1664 c 1,8,9
 352 1664 352 1664 192 1664 c 1,0,1
EndSplineSet
EndChar

StartChar: W
Encoding: 87 87 30
Width: 2048
Flags: W
LayerCount: 2
Fore
SplineSet
192 1664 m 1,0,-1
 192 0 l 1,1,-1
 544 0 l 1,2,3
 1024 768 1024 768 1024 768 c 1,4,-1
 1504 0 l 1,5,-1
 1856 0 l 1,6,-1
 1856 1664 l 1,7,-1
 1600 1664 l 1,8,-1
 1600 320 l 1,9,-1
 1216 960 l 1,10,-1
 832 960 l 1,11,-1
 448 320 l 1,12,-1
 448 1664 l 1,13,-1
 192 1664 l 1,0,-1
EndSplineSet
EndChar

StartChar: X
Encoding: 88 88 31
Width: 2048
Flags: W
LayerCount: 2
Fore
SplineSet
192 1664 m 1,0,-1
 832 832 l 1,1,-1
 192 0 l 1,2,-1
 512 0 l 1,3,-1
 1024 640 l 1,4,-1
 1536 0 l 1,5,-1
 1856 0 l 1,6,-1
 1216 832 l 1,7,-1
 1856 1664 l 1,8,-1
 1536 1664 l 1,9,-1
 1024 1024 l 1,10,-1
 512 1664 l 1,11,-1
 192 1664 l 1,0,-1
EndSplineSet
EndChar

StartChar: Y
Encoding: 89 89 32
Width: 2048
Flags: W
LayerCount: 2
Fore
SplineSet
192 1664 m 1,0,-1
 896 896 l 1,1,-1
 896 0 l 1,2,-1
 1152 0 l 1,3,-1
 1152 896 l 1,4,-1
 1856 1664 l 1,5,-1
 1504 1664 l 1,6,-1
 1024 1136 l 1,7,-1
 544 1664 l 1,8,-1
 192 1664 l 1,0,-1
EndSplineSet
EndChar

StartChar: Z
Encoding: 90 90 33
Width: 2048
Flags: W
LayerCount: 2
Fore
SplineSet
192 1408 m 1,0,-1
 192 1664 l 1,1,-1
 1856 1664 l 1,2,-1
 1856 1344 l 1,3,-1
 512 256 l 1,4,-1
 1856 256 l 1,5,-1
 1856 0 l 1,6,-1
 192 0 l 1,7,-1
 192 320 l 1,8,-1
 1536 1408 l 1,9,-1
 192 1408 l 1,0,-1
EndSplineSet
EndChar

StartChar: c
Encoding: 99 99 34
Width: 2048
Flags: W
LayerCount: 2
Fore
SplineSet
447 297 m 1,0,-1
 564 300 l 1025,1,-1
249 462 m 0,2,3
 250 526 250 526 303 555 c 0,4,5
 400 608 400 608 489.5 607.5 c 0,6,7
 615 607 615 607 702 558 c 0,8,9
 779 514 779 514 780 444 c 0,10,11
 781 387 781 387 678 330 c 0,12,13
 622 299 622 299 513 297 c 0,14,15
 422 295 422 295 333 345 c 0,16,17
 248 392 248 392 249 462 c 0,2,3
1370 1185 m 1,18,-1
 1370 594 l 1,19,-1
 1391 594 l 1,20,-1
 1391 1185 l 1,21,-1
 1370 1185 l 1,18,-1
1580 891 m 1,22,-1
 1580 774 l 1,23,-1
 1655 774 l 1,24,-1
 1655 891 l 1,25,-1
 1580 891 l 1,22,-1
1580 1080 m 1,26,-1
 1580 966 l 1,27,-1
 1652 966 l 1,28,-1
 1652 1080 l 1,29,-1
 1580 1080 l 1,26,-1
206 873 m 1,30,-1
 278 873 l 1,31,-1
 278 732 l 1,32,-1
 206 732 l 1,33,-1
 206 873 l 1,30,-1
203 1101 m 1,34,-1
 275 1101 l 1,35,-1
 275 960 l 1,36,-1
 203 960 l 1,37,-1
 203 1101 l 1,34,-1
1556 1125 m 1,38,-1
 1679 1125 l 1,39,-1
 1679 684 l 1,40,-1
 1556 684 l 1,41,-1
 1556 1125 l 1,38,-1
257 1179 m 1,42,-1
 1556 1179 l 1,43,-1
 1556 612 l 1,44,-1
 257 612 l 1,45,-1
 257 1179 l 1,42,-1
1280 1167 m 25,46,-1
 1157 1170 l 1025,47,-1
1277 1155 m 1048,48,-1
457 645 m 1,49,-1
 456 591 l 1,50,-1
 573 597 l 1,51,-1
 569 645 l 1,52,-1
 457 645 l 1,49,-1
457 645.451171875 m 1025,53,-1
1198 633 m 1,54,-1
 1196.50292969 599.875 l 1,55,-1
 1308.50292969 599.875 l 1,56,-1
 1310 633 l 1,57,-1
 1198 633 l 1,54,-1
934.5 446.75 m 0,58,59
 935 378 935 378 1023.5 329.75 c 0,60,61
 1113 282 1113 282 1237.5 281.75 c 0,62,63
 1363 282 1363 282 1450 331.25 c 0,64,65
 1537 381 1537 381 1537.5 449.25 c 0,66,67
 1537 519 1537 519 1448.50292969 566.875 c 0,68,69
 1375 607 1375 607 1245 609 c 0,70,71
 1113 612 1113 612 1023.5 563.75 c 0,72,73
 934 515 934 515 934.5 446.75 c 0,58,59
1198 633.451171875 m 1025,74,-1
461 1156 m 1,75,-1
 462 1182 l 1,76,-1
 579 1185 l 1,77,-1
 573 1156 l 1,78,-1
 461 1156 l 1,75,-1
264 1347 m 0,79,80
 265 1411 265 1411 318 1440 c 0,81,82
 410 1492 410 1492 504.5 1492.5 c 0,83,84
 631 1492 631 1492 717 1443 c 0,85,86
 794 1399 794 1399 795 1329 c 0,87,88
 796 1271 796 1271 693 1215 c 0,89,90
 637 1184 637 1184 528 1182 c 0,91,92
 437 1180 437 1180 348 1230 c 0,93,94
 263 1277 263 1277 264 1347 c 0,79,80
1175 1158 m 1,95,-1
 1170 1176 l 1,96,-1
 1282 1176 l 1,97,-1
 1287 1158 l 1,98,-1
 1175 1158 l 1,95,-1
907.997070312 1329.125 m 0,99,100
 908 1398 908 1398 996.997070312 1446.125 c 0,101,102
 1086 1494 1086 1494 1210.99707031 1494.125 c 0,103,104
 1336 1494 1336 1494 1423.49707031 1444.625 c 0,105,106
 1511 1395 1511 1395 1510.99707031 1326.625 c 0,107,108
 1511 1257 1511 1257 1422 1209 c 0,109,110
 1349 1169 1349 1169 1218.49707031 1166.875 c 0,111,112
 1086 1164 1086 1164 996.997070312 1212.125 c 0,113,114
 908 1260 908 1260 907.997070312 1329.125 c 0,99,100
EndSplineSet
EndChar

StartChar: d
Encoding: 100 100 35
Width: 2048
Flags: W
LayerCount: 2
Fore
SplineSet
288 96 m 5,0,-1
 288 1568 l 5,1,-1
 1088 1568 l 6,2,3
 1760 1568 1760 1568 1760 832 c 260,4,5
 1760 96 1760 96 1088 96 c 4,6,7
 704 96 704 96 288 96 c 5,0,-1
448 1408 m 5,8,-1
 448 256 l 5,9,-1
 1184 256 l 6,10,11
 1600 256 1600 256 1600 832 c 132,-1,12
 1600 1408 1600 1408 1184 1408 c 4,13,14
 704 1408 704 1408 448 1408 c 5,8,-1
EndSplineSet
EndChar

StartChar: e
Encoding: 101 101 36
Width: 2048
Flags: W
LayerCount: 2
Fore
SplineSet
1760 1568 m 1,0,-1
 896 1568 l 2,1,2
 288 1568 288 1568 288 960 c 0,3,4
 288 864 288 864 288 704 c 0,5,6
 288 96 288 96 896 96 c 0,7,8
 1344 96 1344 96 1760 96 c 1,9,-1
 1760 256 l 1,10,-1
 864 256 l 1,11,12
 455 289 455 289 448 752 c 1,13,14
 1344 752 1344 752 1504 752 c 1,15,16
 1504 816 1504 816 1504 912 c 1,17,18
 1152 912 1152 912 448 912 c 1,19,20
 451 1386 451 1386 864 1408 c 1,21,22
 1248 1408 1248 1408 1760 1408 c 1,23,-1
 1760 1568 l 1,0,-1
EndSplineSet
EndChar

StartChar: f
Encoding: 102 102 37
Width: 2225
Flags: W
LayerCount: 2
Fore
SplineSet
1092.65136719 1634.01757812 m 1048,0,-1
1097.65136719 1647.01757812 m 16,1,2
 1097.65136719 1644.01757812 1097.65136719 1644.01757812 1097.55175781 1641.10058594 c 0,3,4
 1097.65136719 1583.01757812 1097.65136719 1583.01757812 1131.10546875 1534.87792969 c 0,5,6
 1156.65136719 1498.01757812 1156.65136719 1498.01757812 1220.65136719 1458.01757812 c 0,7,8
 1228.65136719 1453.01757812 1228.65136719 1453.01757812 1251.65136719 1441.01757812 c 128,-1,9
 1274.65136719 1429.01757812 1274.65136719 1429.01757812 1286.65136719 1422.01757812 c 0,10,11
 1310.65136719 1407.01757812 1310.65136719 1407.01757812 1324.97753906 1390.94433594 c 0,12,13
 1341.65136719 1371.01757812 1341.65136719 1371.01757812 1346.65136719 1347.01757812 c 0,14,15
 1350.65136719 1326.01757812 1350.65136719 1326.01757812 1343.65136719 1290.01757812 c 0,16,17
 1341.65136719 1280.01757812 1341.65136719 1280.01757812 1336.15136719 1261.01757812 c 128,-1,18
 1330.65136719 1242.01757812 1330.65136719 1242.01757812 1328.65136719 1236.01757812 c 0,19,20
 1323.65136719 1217.01757812 1323.65136719 1217.01757812 1322.65136719 1203.01757812 c 0,21,22
 1321.65136719 1187.01757812 1321.65136719 1187.01757812 1325.859375 1173.1484375 c 0,23,24
 1328.65136719 1164.01757812 1328.65136719 1164.01757812 1341.40820312 1147.61523438 c 0,25,-1
 1397.65136719 1134.01757812 l 0,26,27
 1408.65136719 1136.01757812 1408.65136719 1136.01757812 1426.65136719 1144.51757812 c 128,-1,28
 1444.65136719 1153.01757812 1444.65136719 1153.01757812 1451.65136719 1155.01757812 c 0,29,30
 1468.65136719 1161.01757812 1468.65136719 1161.01757812 1484.65136719 1161.01757812 c 0,31,-1
 1661.65136719 1263.01757812 l 25,32,-1
 1688.65136719 1329.01757812 l 25,33,-1
 1700.65136719 1425.01757812 l 25,34,-1
 1565.65136719 1440.01757812 l 25,35,-1
 1694.65136719 1503.01757812 l 25,36,-1
 1637.65136719 1620.01757812 l 25,37,-1
 1754.65136719 1557.01757812 l 25,38,-1
 1757.65136719 1737.01757812 l 25,39,-1
 1832.65136719 1470.01757812 l 25,40,-1
 1973.65136719 1482.01757812 l 25,41,-1
 1862.65136719 1389.01757812 l 25,42,43
 1860.65136719 1387.01757812 1860.65136719 1387.01757812 1844.65136719 1335.01757812 c 24,44,45
 1832.65136719 1296.01757812 1832.65136719 1296.01757812 1826.65136719 1272.01757812 c 24,46,-1
 1820.65136719 1239.01757812 l 24,47,48
 1802.65136719 1163.01757812 1802.65136719 1163.01757812 1799.65136719 1161.01757812 c 1,49,-1
 1472.65136719 933.017578125 l 25,50,-1
 1530.65136719 836.017578125 l 24,51,-1
 1568.65136719 792.017578125 l 24,52,53
 1579.03222656 759.837890625 1579.03222656 759.837890625 1577.65136719 726.017578125 c 24,54,55
 1575.65136719 672.017578125 1575.65136719 672.017578125 1562.65136719 645.017578125 c 24,56,57
 1527.65136719 570.017578125 1527.65136719 570.017578125 1502.65136719 567.017578125 c 24,58,-1
 1460.65136719 510.017578125 l 24,59,60
 1483.65136719 505.017578125 1483.65136719 505.017578125 1592.65136719 546.017578125 c 24,61,-1
 1625.65136719 573.017578125 l 24,62,63
 1639.65136719 580.017578125 1639.65136719 580.017578125 1646.65136719 573.017578125 c 24,64,-1
 1688.65136719 576.017578125 l 24,65,66
 1796.65136719 576.017578125 1796.65136719 576.017578125 1799.65136719 573.017578125 c 24,67,-1
 1904.65136719 573.017578125 l 24,68,69
 1947.75195312 569.0078125 1947.75195312 569.0078125 1955.65136719 558.017578125 c 24,70,71
 1981.79882812 520.80859375 1981.79882812 520.80859375 1973.65136719 477.017578125 c 24,72,73
 1969.65136719 455.017578125 1969.65136719 455.017578125 1931.65136719 429.017578125 c 24,74,75
 1853.65136719 375.017578125 1853.65136719 375.017578125 1835.65136719 381.017578125 c 24,76,77
 1765.16992188 344.67578125 1765.16992188 344.67578125 1760.65136719 342.017578125 c 24,78,79
 1699.65136719 306.017578125 1699.65136719 306.017578125 1682.65136719 291.017578125 c 24,80,-1
 1655.65136719 249.017578125 l 24,81,82
 1658.33984375 248.12109375 1658.33984375 248.12109375 1814.65136719 255.017578125 c 24,83,84
 1855.19824219 257.151367188 1855.19824219 257.151367188 1859.65136719 258.017578125 c 24,85,86
 1901.69824219 265.83984375 1901.69824219 265.83984375 1922.65136719 276.017578125 c 24,87,88
 1933.65136719 282.017578125 1933.65136719 282.017578125 1964.65136719 309.017578125 c 24,89,-1
 2039.65136719 381.017578125 l 24,90,91
 2096.46484375 413.909179688 2096.46484375 413.909179688 2108.65136719 393.017578125 c 24,92,93
 2112.65136719 385.017578125 2112.65136719 385.017578125 2060.65136719 345.017578125 c 24,94,95
 2014.65136719 309.017578125 2014.65136719 309.017578125 2003.65136719 312.017578125 c 24,96,97
 1978.8515625 287.217773438 1978.8515625 287.217773438 1991.65136719 276.017578125 c 24,98,99
 2005.78613281 263.90234375 2005.78613281 263.90234375 2051.65136719 270.017578125 c 24,100,101
 2072.65136719 273.017578125 2072.65136719 273.017578125 2126.65136719 294.017578125 c 24,102,-1
 2165.65136719 315.017578125 l 24,103,104
 2193.65136719 327.017578125 2193.65136719 327.017578125 2198.65136719 324.017578125 c 24,105,106
 2189.56542969 300.798828125 2189.56542969 300.798828125 2144.65136719 261.017578125 c 24,107,108
 2121.26660156 240.682617188 2121.26660156 240.682617188 2093.65136719 231.017578125 c 24,109,110
 2085.18066406 228.900390625 2085.18066406 228.900390625 2024.65136719 219.017578125 c 24,111,112
 1947.33007812 206.130859375 1947.33007812 206.130859375 1946.65136719 207.017578125 c 24,113,114
 1955.06640625 196.499023438 1955.06640625 196.499023438 2063.65136719 168.017578125 c 24,115,116
 2120.34863281 153.09765625 2120.34863281 153.09765625 2129.65136719 159.017578125 c 24,117,118
 2124.11328125 155.325195312 2124.11328125 155.325195312 2030.65136719 147.017578125 c 24,119,120
 2011.65136719 145.017578125 2011.65136719 145.017578125 1994.65136719 147.017578125 c 24,121,122
 1946.65136719 152.017578125 1946.65136719 152.017578125 1943.65136719 156.017578125 c 24,123,-1
 1889.65136719 165.017578125 l 24,124,125
 1808.65136719 179.017578125 1808.65136719 179.017578125 1808.65136719 180.017578125 c 24,126,127
 1751.65136719 184.017578125 1751.65136719 184.017578125 1709.65136719 177.017578125 c 24,128,-1
 1601.65136719 147.017578125 l 24,129,130
 1536.25878906 131.448242188 1536.25878906 131.448242188 1511.65136719 129.017578125 c 24,131,132
 1368.78125 115.030273438 1368.78125 115.030273438 1358.65136719 123.017578125 c 24,133,134
 1350.65136719 129.017578125 1350.65136719 129.017578125 1355.65136719 252.017578125 c 24,135,136
 1356.65136719 280.017578125 1356.65136719 280.017578125 1364.65136719 285.017578125 c 24,137,138
 1367.65136719 316.017578125 1367.65136719 316.017578125 1361.65136719 321.017578125 c 24,139,-1
 1307.65136719 330.017578125 l 24,140,141
 1249.65136719 344.017578125 1249.65136719 344.017578125 1247.65136719 348.017578125 c 24,142,-1
 1187.65136719 348.017578125 l 24,143,144
 1133.65136719 360.017578125 1133.65136719 360.017578125 1127.65136719 375.017578125 c 24,145,-1
 1082.65136719 351.017578125 l 24,146,147
 1061.65136719 344.017578125 1061.65136719 344.017578125 1043.65136719 348.017578125 c 24,148,149
 1005.65136719 356.017578125 1005.65136719 356.017578125 1001.65136719 369.017578125 c 24,150,151
 985.651367188 373.017578125 985.651367188 373.017578125 944.651367188 372.017578125 c 24,152,-1
 829.651367188 365.017578125 l 24,153,154
 742.651367188 362.017578125 742.651367188 362.017578125 739.651367188 365.017578125 c 24,155,-1
 769.651367188 308.017578125 l 24,156,157
 779.651367188 273.017578125 779.651367188 273.017578125 769.651367188 263.017578125 c 24,158,-1
 784.651367188 197.017578125 l 24,159,160
 786.619140625 168.486328125 786.619140625 168.486328125 775.651367188 158.017578125 c 24,161,162
 756.651367188 140.017578125 756.651367188 140.017578125 718.651367188 134.017578125 c 24,163,164
 666.651367188 126.017578125 666.651367188 126.017578125 655.651367188 140.017578125 c 24,165,-1
 553.651367188 119.017578125 l 24,166,167
 466.651367188 110.017578125 466.651367188 110.017578125 457.651367188 119.017578125 c 24,168,-1
 382.651367188 119.017578125 l 24,169,170
 332.651367188 118.017578125 332.651367188 118.017578125 319.651367188 116.017578125 c 24,171,-1
 262.651367188 101.017578125 l 24,172,173
 229.651367188 114.017578125 229.651367188 114.017578125 268.651367188 137.017578125 c 24,174,175
 311.651367188 162.017578125 311.651367188 162.017578125 334.651367188 143.017578125 c 24,176,-1
 400.651367188 167.017578125 l 24,177,178
 436.891601562 178.090820312 436.891601562 178.090820312 442.651367188 176.017578125 c 24,179,180
 414.651367188 186.017578125 414.651367188 186.017578125 325.651367188 194.017578125 c 24,181,-1
 238.651367188 194.017578125 l 24,182,183
 206.127929688 198.083007812 206.127929688 198.083007812 196.651367188 209.017578125 c 24,184,185
 175.651367188 234.017578125 175.651367188 234.017578125 199.651367188 239.017578125 c 24,186,187
 274.651367188 255.017578125 274.651367188 255.017578125 295.651367188 230.017578125 c 24,188,189
 325.651367188 228.017578125 325.651367188 228.017578125 352.651367188 227.017578125 c 24,190,-1
 418.651367188 227.017578125 l 24,191,192
 399.651367188 248.017578125 399.651367188 248.017578125 304.651367188 281.017578125 c 24,193,-1
 235.651367188 290.017578125 l 24,194,195
 197.651367188 311.017578125 197.651367188 311.017578125 202.651367188 338.017578125 c 24,196,197
 217.651367188 347.017578125 217.651367188 347.017578125 304.651367188 329.017578125 c 24,198,199
 331.651367188 323.017578125 331.651367188 323.017578125 334.651367188 311.017578125 c 24,200,201
 352.651367188 302.017578125 352.651367188 302.017578125 406.651367188 278.017578125 c 24,202,-1
 469.651367188 251.017578125 l 24,203,204
 495.651367188 229.017578125 495.651367188 229.017578125 487.651367188 209.017578125 c 24,205,206
 489.651367188 207.017578125 489.651367188 207.017578125 505.651367188 209.017578125 c 24,207,-1
 556.651367188 218.017578125 l 24,208,209
 577.651367188 221.017578125 577.651367188 221.017578125 577.651367188 221.017578125 c 24,210,-1
 466.651367188 311.017578125 l 24,211,212
 417.651367188 356.017578125 417.651367188 356.017578125 418.651367188 368.017578125 c 24,213,-1
 307.651367188 386.017578125 l 24,214,215
 247.610351562 405.030273438 247.610351562 405.030273438 226.651367188 428.017578125 c 24,216,217
 204.7421875 451.918945312 204.7421875 451.918945312 214.651367188 488.017578125 c 24,218,219
 233.541015625 557.610351562 233.541015625 557.610351562 268.651367188 581.017578125 c 24,220,221
 281.651367188 590.017578125 281.651367188 590.017578125 358.651367188 584.017578125 c 24,222,223
 420.651367188 579.017578125 420.651367188 579.017578125 427.651367188 569.017578125 c 24,224,-1
 520.651367188 566.017578125 l 24,225,226
 555.651367188 561.017578125 555.651367188 561.017578125 580.651367188 557.017578125 c 24,227,228
 639.713867188 547.642578125 639.713867188 547.642578125 670.651367188 542.017578125 c 24,229,230
 711.651367188 535.017578125 711.651367188 535.017578125 712.651367188 533.017578125 c 24,231,-1
 625.651367188 596.017578125 l 24,232,233
 573.479492188 636.150390625 573.479492188 636.150390625 568.651367188 644.017578125 c 24,234,235
 547.140625 678.240234375 547.140625 678.240234375 544.651367188 728.017578125 c 24,236,237
 542.795898438 766.051757812 542.795898438 766.051757812 559.651367188 824.017578125 c 24,238,239
 571.651367188 865.017578125 571.651367188 865.017578125 585.651367188 869.017578125 c 24,240,-1
 603.651367188 902.017578125 l 24,241,-1
 549.651367188 971.017578125 l 24,242,-1
 468.651367188 1034.01757812 l 24,243,244
 380.651367188 1121.01757812 380.651367188 1121.01757812 381.651367188 1136.01757812 c 24,245,-1
 323.880859375 1192.65722656 l 1,246,247
 320.651367188 1195.01757812 320.651367188 1195.01757812 312.717773438 1272.65917969 c 24,248,-1
 310.857421875 1306.1484375 l 24,249,250
 307.651367188 1331.01757812 307.651367188 1331.01757812 300.810546875 1370.89453125 c 24,251,252
 291.407226562 1424.34570312 291.407226562 1424.34570312 289.647460938 1426.7109375 c 25,253,-1
 191.0390625 1532.75976562 l 25,254,-1
 329.461914062 1503.36425781 l 25,255,-1
 437 1759 l 25,256,-1
 417.651367188 1580.01757812 l 25,257,-1
 541.561523438 1628.01855469 l 25,258,-1
 470.489257812 1518.9921875 l 25,259,-1
 590.6796875 1440.47851562 l 25,260,-1
 454.861328125 1442.33886719 l 25,261,-1
 454.861328125 1345.59179688 l 25,262,-1
 468.651367188 1271.01757812 l 24,263,-1
 504.651367188 1244.01757812 l 24,264,-1
 618.651367188 1163.01757812 l 24,265,266
 696.651367188 1106.01757812 696.651367188 1106.01757812 696.651367188 1103.01757812 c 24,267,-1
 726.651367188 1106.01757812 l 24,268,-1
 753.651367188 1121.01757812 l 24,269,-1
 750.651367188 1151.01757812 l 24,270,-1
 714.651367188 1175.01757812 l 24,271,272
 662.239257812 1215.78222656 662.239257812 1215.78222656 651.651367188 1229.01757812 c 24,273,274
 634.318359375 1250.68457031 634.318359375 1250.68457031 630.651367188 1280.01757812 c 24,275,276
 628.423828125 1300.06738281 628.423828125 1300.06738281 639.651367188 1325.01757812 c 24,277,278
 648.692382812 1345.36035156 648.692382812 1345.36035156 684.651367188 1400.01757812 c 24,279,280
 695.439453125 1416.41503906 695.439453125 1416.41503906 714.651367188 1439.01757812 c 24,281,282
 722.526367188 1448.20507812 722.526367188 1448.20507812 735.651367188 1460.01757812 c 24,283,284
 772.651367188 1493.01757812 772.651367188 1493.01757812 774.651367188 1493.01757812 c 24,285,-1
 816.651367188 1544.01757812 l 24,286,-1
 831.651367188 1601.01757812 l 24,287,288
 846.762695312 1653.46191406 846.762695312 1653.46191406 849.651367188 1661.01757812 c 24,289,290
 860.870117188 1690.93554688 860.870117188 1690.93554688 870.651367188 1703.01757812 c 24,291,292
 875.203125 1708.52734375 875.203125 1708.52734375 900.651367188 1724.01757812 c 24,293,294
 932.016601562 1743.18554688 932.016601562 1743.18554688 939.651367188 1745.01757812 c 24,295,296
 967.651367188 1752.01757812 967.651367188 1752.01757812 975.651367188 1742.01757812 c 24,297,-1
 1008.65136719 1742.01757812 l 24,298,-1
 1044.65136719 1742.01757812 l 24,299,300
 1046.34179688 1741.38378906 1046.34179688 1741.38378906 1077.65136719 1715.01757812 c 24,301,302
 1101.65136719 1695.01757812 1101.65136719 1695.01757812 1101.65136719 1694.01757812 c 24,303,-1
 1097.65136719 1647.01757812 l 16,1,2
2988 -79 m 1024,304,-1
  Spiro
    2988 -79 {
    0 0 z
  EndSpiro
EndSplineSet
EndChar

StartChar: g
Encoding: 103 103 38
Width: 2048
InSpiro: 1
Flags: W
LayerCount: 2
Fore
SplineSet
1225.5 664 m 1024,0,-1
  Spiro
    1225.5 664 {
    0 0 z
  EndSpiro
726 648 m 128,-1,2
 726 626 726 626 764 612 c 128,-1,3
 802 598 802 598 854 598 c 128,-1,4
 906 598 906 598 944 612 c 128,-1,5
 982 626 982 626 982 648 c 128,-1,6
 982 670 982 670 944 684 c 128,-1,7
 906 698 906 698 854 698 c 128,-1,8
 802 698 802 698 764 684 c 128,-1,1
 726 670 726 670 726 648 c 128,-1,2
  Spiro
    726 648 o
    730.214 634.235 o
    742.906 622.211 o
    764 612 o
    790.86 604.228 o
    820.92 599.552 o
    854 598 o
    887.08 599.552 o
    917.14 604.228 o
    944 612 o
    965.094 622.211 o
    977.786 634.235 o
    982 648 o
    977.786 661.765 o
    965.094 673.789 o
    944 684 o
    917.14 691.772 o
    887.08 696.448 o
    854 698 o
    820.92 696.448 o
    790.86 691.772 o
    764 684 o
    742.906 673.789 o
    730.214 661.765 o
    0 0 z
  EndSpiro
1216 684 m 128,-1,10
 1216 662 1216 662 1254 648 c 128,-1,11
 1292 634 1292 634 1344 634 c 128,-1,12
 1396 634 1396 634 1434 648 c 128,-1,13
 1472 662 1472 662 1472 684 c 128,-1,14
 1472 706 1472 706 1434 720 c 128,-1,15
 1396 734 1396 734 1344 734 c 128,-1,16
 1292 734 1292 734 1254 720 c 128,-1,9
 1216 706 1216 706 1216 684 c 128,-1,10
  Spiro
    1216 684 o
    1220.21 670.235 o
    1232.91 658.211 o
    1254 648 o
    1280.86 640.228 o
    1310.92 635.552 o
    1344 634 o
    1377.08 635.552 o
    1407.14 640.228 o
    1434 648 o
    1455.09 658.211 o
    1467.79 670.235 o
    1472 684 o
    1467.79 697.765 o
    1455.09 709.789 o
    1434 720 o
    1407.14 727.772 o
    1377.08 732.448 o
    1344 734 o
    1310.92 732.448 o
    1280.86 727.772 o
    1254 720 o
    1232.91 709.789 o
    1220.21 697.765 o
    0 0 z
  EndSpiro
997.5 548 m 128,-1,18
 997.5 526 997.5 526 1035.5 512 c 128,-1,19
 1073.5 498 1073.5 498 1125.5 498 c 128,-1,20
 1177.5 498 1177.5 498 1215.5 512 c 128,-1,21
 1253.5 526 1253.5 526 1253.5 548 c 128,-1,22
 1253.5 570 1253.5 570 1215.5 584 c 128,-1,23
 1177.5 598 1177.5 598 1125.5 598 c 128,-1,24
 1073.5 598 1073.5 598 1035.5 584 c 128,-1,17
 997.5 570 997.5 570 997.5 548 c 128,-1,18
  Spiro
    997.5 548 o
    1001.71 534.235 o
    1014.41 522.211 o
    1035.5 512 o
    1062.36 504.228 o
    1092.42 499.552 o
    1125.5 498 o
    1158.58 499.552 o
    1188.64 504.228 o
    1215.5 512 o
    1236.59 522.211 o
    1249.29 534.235 o
    1253.5 548 o
    1249.29 561.765 o
    1236.59 573.789 o
    1215.5 584 o
    1188.64 591.772 o
    1158.58 596.448 o
    1125.5 598 o
    1092.42 596.448 o
    1062.36 591.772 o
    1035.5 584 o
    1014.41 573.789 o
    1001.71 561.765 o
    0 0 z
  EndSpiro
568 748 m 0,25,26
 549 780 549 780 504 752 c 0,27,28
 410 693 410 693 316 712 c 0,29,30
 248 726 248 726 240 744 c 1,31,-1
 140 768 l 1,32,33
 61 817 61 817 52 840 c 0,34,35
 36 885 36 885 108 944 c 0,36,37
 151 979 151 979 176 968 c 1,38,-1
 240 996 l 1,39,40
 306 1008 306 1008 352 1004 c 1,41,-1
 396 1004 l 1,42,-1
 452 988 l 1,43,-1
 532 960 l 1,44,45
 623 656 623 656 568 748 c 0,25,26
  Spiro
    568 748 o
    552.463 762.659 o
    531.087 763.995 o
    504 752 o
    441.396 721.355 o
    378.604 707.995 o
    316 712 o
    277.365 721.768 o
    251.981 732.456 o
    240 744 v
    140 768 v
    95.1482 797.751 o
    65.7562 821.799 o
    52 840 o
    51.1022 871.522 o
    69.8062 906.258 o
    108 944 o
    134.642 962.209 o
    157.354 970.225 o
    176 968 v
    240 996 v
    281.738 1002.22 o
    319.146 1004.89 o
    352 1004 v
    396 1004 v
    452 988 v
    532 960 v
    576.416 801.448 o
    588.44 730.64 o
    0 0 z
  EndSpiro
1486.33691406 594.060546875 m 0,46,47
 1490.66308594 607.381835938 1490.66308594 607.381835938 1498.796875 617.510742188 c 0,48,49
 1507.50683594 628.357421875 1507.50683594 628.357421875 1519.51757812 634.32421875 c 128,-1,50
 1531.6796875 640.3671875 1531.6796875 640.3671875 1545.46386719 640.521484375 c 0,51,52
 1558.08007812 640.661132812 1558.08007812 640.661132812 1571.56445312 635.634765625 c 0,53,54
 1575.7578125 634.071289062 1575.7578125 634.071289062 1604.05664062 619.4375 c 0,55,56
 1621.53320312 610.400390625 1621.53320312 610.400390625 1638.15136719 606.956054688 c 0,57,58
 1643.08789062 605.885742188 1643.08789062 605.885742188 1652.99804688 604.721679688 c 128,-1,59
 1662.90917969 603.559570312 1662.90917969 603.559570312 1665.85546875 602.525390625 c 0,60,61
 1682.60839844 599.6171875 1682.60839844 599.6171875 1696.66796875 593.452148438 c 0,62,63
 1708.73828125 588.16015625 1708.73828125 588.16015625 1724.63671875 577.912109375 c 0,64,65
 1766.39355469 550.671875 1766.39355469 550.671875 1786.48925781 529.7109375 c 0,66,67
 1808.50097656 506.755859375 1808.50097656 506.755859375 1816.35839844 478.176757812 c 2,68,-1
 1836 368 l 1,69,70
 1798.24707031 344.180664062 1798.24707031 344.180664062 1751.52929688 346.021484375 c 0,71,72
 1719.73339844 347.587890625 1719.73339844 347.587890625 1660.76464844 367.299804688 c 0,73,74
 1615.89648438 382.330078125 1615.89648438 382.330078125 1593.99804688 392.423828125 c 0,75,76
 1558.15625 408.943359375 1558.15625 408.943359375 1535.84765625 432.349609375 c 0,77,78
 1513.87402344 456.286132812 1513.87402344 456.286132812 1498.32519531 491.868164062 c 0,79,80
 1487.2890625 518.151367188 1487.2890625 518.151367188 1483.55273438 541.982421875 c 0,81,82
 1478.953125 571.323242188 1478.953125 571.323242188 1486.33691406 594.060546875 c 0,46,47
  Spiro
    1486.34 594.061 o
    1489.64 602.579 o
    1493.8 610.411 o
    1498.8 617.511 o
    1504.96 624.194 o
    1511.88 629.809 o
    1519.52 634.324 o
    1527.8 637.696 o
    1536.46 639.766 o
    1545.46 640.521 o
    1553.96 640.042 o
    1562.68 638.409 o
    1571.56 635.635 o
    1577.03 633.144 o
    1587.88 627.734 o
    1604.06 619.438 o
    1615.6 614.039 o
    1626.99 609.87 o
    1638.15 606.956 o
    1641.99 606.233 o
    1646.95 605.487 o
    1653 604.722 o
    1658.83 603.962 o
    1663.12 603.228 o
    1665.86 602.525 o
    1676.71 600.227 o
    1687.01 597.197 o
    1696.67 593.452 o
    1705.13 589.378 o
    1714.47 584.188 o
    1724.64 577.912 o
    1750.04 560.466 o
    1770.7 544.367 o
    1786.49 529.711 o
    1799.58 513.799 o
    1809.56 496.587 o
    1816.36 478.177 [
    1836 368 v
    1809.86 354.982 o
    1781.65 347.641 o
    1751.53 346.021 o
    1727.34 349.077 o
    1697.02 356.184 o
    1660.76 367.3 o
    1633.43 376.763 o
    1611.13 385.154 o
    1594 392.424 o
    1571.63 404.189 o
    1552.21 417.525 o
    1535.85 432.35 o
    1521.93 449.583 o
    1509.39 469.462 o
    1498.33 491.868 o
    1491.78 509.101 o
    1486.85 525.839 o
    1483.55 541.982 o
    1481.82 560.791 o
    1482.75 578.185 o
    0 0 z
  EndSpiro
706.338867188 583.668945312 m 0,83,84
 731.85546875 577.577148438 731.85546875 577.577148438 749.545898438 560.979492188 c 0,85,86
 767.831054688 543.823242188 767.831054688 543.823242188 774.002929688 518.903320312 c 0,87,88
 778.801757812 499.526367188 778.801757812 499.526367188 775.731445312 474.098632812 c 0,89,90
 775.633789062 473.288085938 775.633789062 473.288085938 767.958984375 429.688476562 c 0,91,92
 761.756835938 394.452148438 761.756835938 394.452148438 764.888671875 366.662109375 c 0,93,94
 765.520507812 361.060546875 765.520507812 361.060546875 766.525390625 355.6796875 c 0,95,96
 773.36328125 319.075195312 773.36328125 319.075195312 796 288 c 0,97,98
 829.30078125 242.479492188 829.30078125 242.479492188 883.533203125 225.484375 c 0,99,100
 901.317382812 219.451171875 901.317382812 219.451171875 936.1015625 214.337890625 c 128,-1,101
 970.885742188 209.223632812 970.885742188 209.223632812 978.064453125 208.026367188 c 0,102,103
 1019.17285156 199.724609375 1019.17285156 199.724609375 1047.34863281 180.668945312 c 0,104,105
 1079.453125 158.954101562 1079.453125 158.954101562 1096.10058594 124.821289062 c 1,106,-1
 1206.63476562 36.7431640625 l 1,107,108
 1152.96289062 48.7705078125 1152.96289062 48.7705078125 1076.79101562 46.177734375 c 0,109,110
 1045.65917969 45.6689453125 1045.65917969 45.6689453125 1032.6328125 45.1982421875 c 0,111,112
 1016.51367188 45.384765625 1016.51367188 45.384765625 980.079101562 47.29296875 c 128,-1,113
 943.64453125 49.201171875 943.64453125 49.201171875 923.551757812 48.9365234375 c 0,114,115
 908.254882812 48.533203125 908.254882812 48.533203125 889.275390625 46.3828125 c 0,116,117
 877.901367188 45.0947265625 877.901367188 45.0947265625 856.168945312 41.99609375 c 128,-1,118
 834.435546875 38.8974609375 834.435546875 38.8974609375 824.208984375 37.681640625 c 0,119,120
 823.258789062 37.5693359375 823.258789062 37.5693359375 822.30859375 37.4609375 c 0,121,122
 740.913085938 28.2392578125 740.913085938 28.2392578125 680.05859375 57.720703125 c 0,123,124
 620.080078125 86.779296875 620.080078125 86.779296875 569.668945312 153.7109375 c 0,125,126
 535.446289062 199.146484375 535.446289062 199.146484375 515.055664062 248.060546875 c 0,127,128
 497.009765625 291.350585938 497.009765625 291.350585938 492.26171875 333.48828125 c 0,129,130
 491.095703125 343.833984375 491.095703125 343.833984375 490.752929688 354.01953125 c 0,131,132
 487.55078125 449.534179688 487.55078125 449.534179688 547.895507812 519.702148438 c 0,133,134
 578.922851562 555.78125 578.922851562 555.78125 618.8203125 573.411132812 c 0,135,136
 641.330078125 583.358398438 641.330078125 583.358398438 664.159179688 585.944335938 c 0,137,138
 686.301757812 588.453125 686.301757812 588.453125 706.338867188 583.668945312 c 0,83,84
  Spiro
    706.339 583.669 o
    722.465 578.447 o
    736.896 570.869 o
    749.546 560.979 o
    760.381 548.693 o
    768.549 534.639 o
    774.003 518.903 o
    776.326 505.327 o
    776.904 490.363 o
    775.731 474.099 o
    774.826 468.814 o
    772.23 453.981 o
    767.959 429.688 o
    764.863 407.047 o
    763.838 385.996 o
    764.889 366.662 o
    765.351 362.956 o
    765.898 359.288 o
    766.525 355.68 o
    772.831 331.914 o
    782.676 309.309 o
    796 288 o
    820.499 260.846 o
    849.735 239.966 o
    883.533 225.484 o
    897.263 221.568 o
    914.82 217.845 o
    936.102 214.338 o
    956.207 211.366 o
    970.222 209.258 o
    978.064 208.026 o
    1004.01 201.305 o
    1027.15 192.168 o
    1047.35 180.669 o
    1067.02 164.83 o
    1083.3 146.177 o
    1096.1 124.821 v
    1206.63 36.7432 v
    1168.39 43.1322 o
    1125.03 46.2833 o
    1076.79 46.1777 o
    1058.06 45.8431 o
    1043.32 45.516 o
    1032.63 45.1982 o
    1019.64 45.5134 o
    1002.09 46.213 o
    980.079 47.293 o
    957.626 48.3229 o
    938.746 48.8718 o
    923.552 48.9365 o
    912.956 48.4742 o
    901.507 47.6212 o
    889.275 46.3828 o
    880.552 45.3242 o
    869.494 43.859 o
    856.169 41.9961 o
    842.97 40.1412 o
    832.296 38.7002 o
    824.209 37.6816 o
    823.576 37.6073 o
    822.941 37.5336 o
    822.309 37.4609 o
    770.377 35.611 o
    722.865 42.3778 o
    680.059 57.7207 o
    641.174 81.2734 o
    604.304 113.334 o
    569.669 153.711 o
    548.41 184.357 o
    530.17 215.87 o
    515.056 248.061 o
    504.512 276.764 o
    496.899 305.297 o
    492.262 333.488 o
    491.576 340.361 o
    491.073 347.218 o
    490.753 354.02 o
    495.667 414.822 o
    514.753 470.16 o
    547.896 519.702 o
    569.543 541.685 o
    593.232 559.624 o
    618.82 573.411 o
    633.847 579.22 o
    648.99 583.406 o
    664.159 585.944 o
    678.673 586.806 o
    692.761 586.046 o
    0 0 z
  EndSpiro
764.358398438 500.215820312 m 1152,-1,60
  Spiro
    764.358 500.216 {
    0 0 z
  EndSpiro
708 1164 m 0,139,140
 688.620117188 1156.98828125 688.620117188 1156.98828125 666.33203125 1156.98828125 c 0,141,142
 643.3515625 1156.98828125 643.3515625 1156.98828125 619.86328125 1164.34082031 c 0,143,144
 578.233398438 1177.37304688 578.233398438 1177.37304688 543.353515625 1209.74121094 c 0,145,146
 475.513671875 1272.69433594 475.513671875 1272.69433594 468 1368 c 0,147,148
 467.198242188 1378.16308594 467.198242188 1378.16308594 467.198242188 1388.57910156 c 0,149,150
 467.198242188 1430.99902344 467.198242188 1430.99902344 480.287109375 1476.0625 c 0,151,152
 495.075195312 1526.98144531 495.075195312 1526.98144531 524 1576 c 0,153,154
 566.608398438 1648.20800781 566.608398438 1648.20800781 622.96875 1683.84667969 c 0,155,156
 680.150390625 1720.00488281 680.150390625 1720.00488281 762.084960938 1720.00488281 c 0,157,158
 763.04296875 1720.00488281 763.04296875 1720.00488281 764 1720 c 0,159,160
 774.299804688 1719.94335938 774.299804688 1719.94335938 796.248046875 1719.31152344 c 128,-1,161
 818.196289062 1718.67871094 818.196289062 1718.67871094 829.64453125 1718.67871094 c 0,162,163
 848.751953125 1718.67871094 848.751953125 1718.67871094 864 1720 c 0,164,165
 884 1722 884 1722 920 1728 c 128,-1,166
 956 1734 956 1734 972 1736 c 0,167,168
 985 1737 985 1737 1016 1740 c 0,169,170
 1092 1746 1092 1746 1144 1764 c 1,171,-1
 1044 1664 l 1,172,173
 1031.27832031 1628.19628906 1031.27832031 1628.19628906 1001.80078125 1602.99609375 c 0,174,175
 975.931640625 1580.88085938 975.931640625 1580.88085938 936 1568 c 0,176,177
 929 1566 929 1566 895 1557 c 128,-1,178
 861 1548 861 1548 844 1540 c 0,179,180
 792 1517 792 1517 764 1468 c 0,181,182
 744.981445312 1434.56152344 744.981445312 1434.56152344 742.28515625 1397.40527344 c 0,183,184
 741.888671875 1391.94335938 741.888671875 1391.94335938 741.888671875 1386.30566406 c 0,185,186
 741.888671875 1358.328125 741.888671875 1358.328125 752 1324 c 0,187,188
 764.510742188 1281.52539062 764.510742188 1281.52539062 764.69921875 1280.72949219 c 0,189,190
 770.598632812 1255.79882812 770.598632812 1255.79882812 768 1236 c 0,191,192
 764.657226562 1210.53222656 764.657226562 1210.53222656 748.403320312 1191.41992188 c 0,193,194
 732.677734375 1172.92871094 732.677734375 1172.92871094 708 1164 c 0,139,140
  Spiro
    708 1164 o
    694.771 1160.11 o
    680.853 1157.77 o
    666.332 1156.99 o
    650.971 1157.8 o
    635.45 1160.26 o
    619.863 1164.34 o
    592.886 1175.16 o
    567.332 1190.33 o
    543.354 1209.74 o
    504.862 1255.26 o
    479.694 1308.11 o
    468 1368 o
    467.555 1374.8 o
    467.287 1381.67 o
    467.198 1388.58 o
    468.65 1417.12 o
    473.021 1446.34 o
    480.287 1476.06 o
    491.704 1509.76 o
    506.304 1543.14 o
    524 1576 o
    553.902 1620.04 o
    586.958 1656.06 o
    622.969 1683.85 o
    663.797 1703.92 o
    710.261 1716 o
    762.085 1720 o
    762.723 1720 o
    763.363 1720 o
    764 1720 o
    772.151 1719.9 o
    782.922 1719.67 o
    796.248 1719.31 o
    809.701 1718.96 o
    820.856 1718.75 o
    829.645 1718.68 o
    841.942 1718.83 o
    853.417 1719.27 o
    864 1720 o
    879.094 1721.78 o
    897.798 1724.45 o
    920 1728 o
    941.758 1731.55 o
    959.126 1734.22 o
    972 1736 o
    982.654 1736.89 o
    997.35 1738.22 o
    1016 1740 o
    1063.95 1745.33 o
    1106.71 1753.34 o
    1144 1764 v
    1044 1664 v
    1033.67 1641.33 o
    1019.57 1620.96 o
    1001.8 1603 o
    983.013 1589.29 o
    961.035 1577.6 o
    936 1568 o
    928.344 1565.89 o
    914.65 1562.22 o
    895 1557 o
    874.241 1551.12 o
    857.207 1545.44 o
    844 1540 o
    812.029 1521.8 o
    785.309 1497.75 o
    764 1468 o
    753.144 1445.32 o
    745.891 1421.74 o
    742.285 1397.41 o
    742.065 1393.75 o
    741.933 1390.04 o
    741.889 1386.31 o
    743.01 1366.97 o
    746.387 1346.16 o
    752 1324 o
    758.966 1300.33 o
    763.207 1285.88 o
    764.699 1280.73 o
    767.686 1264.69 o
    768.788 1249.76 o
    768 1236 o
    764.342 1219.74 o
    757.797 1204.85 o
    748.403 1191.42 o
    736.937 1180.17 o
    723.443 1171.01 o
    0 0 z
  EndSpiro
1404 1236 m 0,195,196
 1397.46386719 1259.328125 1397.46386719 1259.328125 1403.22070312 1289.16699219 c 0,197,198
 1407.89648438 1313.40234375 1407.89648438 1313.40234375 1420 1340 c 0,199,200
 1437 1376 1437 1376 1460 1400 c 0,201,202
 1483.31542969 1423.453125 1483.31542969 1423.453125 1519.95996094 1439.62988281 c 0,203,204
 1542.34765625 1449.51269531 1542.34765625 1449.51269531 1588 1464 c 0,205,206
 1648 1483 1648 1483 1680 1484 c 0,207,208
 1727 1485 1727 1485 1764 1460 c 1,209,-1
 1740 1348 l 2,210,211
 1731 1319 1731 1319 1708 1296 c 0,212,213
 1687 1275 1687 1275 1644 1248 c 0,214,215
 1627.6328125 1237.84570312 1627.6328125 1237.84570312 1615.30273438 1232.67480469 c 0,216,217
 1600.94140625 1226.65136719 1600.94140625 1226.65136719 1584 1224 c 0,218,219
 1581 1223 1581 1223 1571 1222 c 128,-1,220
 1561 1221 1561 1221 1556 1220 c 0,221,222
 1539.17382812 1216.79980469 1539.17382812 1216.79980469 1521.26660156 1207.91015625 c 0,223,224
 1492.2734375 1193.515625 1492.2734375 1193.515625 1488 1192 c 0,225,226
 1474.26074219 1187.12597656 1474.26074219 1187.12597656 1461.59277344 1187.50585938 c 0,227,228
 1447.75195312 1187.921875 1447.75195312 1187.921875 1435.76953125 1194.3125 c 128,-1,229
 1423.93652344 1200.62304688 1423.93652344 1200.62304688 1415.60644531 1211.85058594 c 0,230,231
 1407.82910156 1222.33300781 1407.82910156 1222.33300781 1404 1236 c 0,195,196
  Spiro
    1404 1236 o
    1401.01 1252.26 o
    1400.75 1270.02 o
    1403.22 1289.17 o
    1407.16 1305.57 o
    1412.76 1322.55 o
    1420 1340 o
    1431.99 1362.65 o
    1445.35 1382.69 o
    1460 1400 o
    1477.01 1414.81 o
    1497.03 1428.05 o
    1519.96 1439.63 o
    1537.45 1446.72 o
    1560.18 1454.86 o
    1588 1464 o
    1624.86 1474.66 o
    1655.58 1481.34 o
    1680 1484 o
    1710.19 1481.78 o
    1738.25 1473.77 o
    1764 1460 v
    1740 1348 ]
    1732.45 1329.35 o
    1721.77 1311.98 o
    1708 1296 o
    1691.57 1281.35 o
    1670.2 1265.32 o
    1644 1248 o
    1633.55 1241.79 o
    1623.96 1236.67 o
    1615.3 1232.67 o
    1605.45 1229.04 o
    1595 1226.14 o
    1584 1224 o
    1581.23 1223.33 o
    1576.88 1222.67 o
    1571 1222 o
    1564.89 1221.33 o
    1559.88 1220.67 o
    1556 1220 o
    1544.67 1217.24 o
    1533.07 1213.2 o
    1521.27 1207.91 o
    1504.7 1199.75 o
    1493.59 1194.44 o
    1488 1192 o
    1478.97 1189.34 o
    1470.15 1187.84 o
    1461.59 1187.51 o
    1452.58 1188.45 o
    1443.96 1190.72 o
    1435.77 1194.31 o
    1428.28 1199.06 o
    1421.54 1204.92 o
    1415.61 1211.85 o
    1410.86 1219.19 o
    1406.99 1227.25 o
    0 0 z
  EndSpiro
1744 936 m 1,232,-1
 2024 896 l 1,233,-1
 1756 836 l 1,234,-1
 1744 936 l 1,232,-1
  Spiro
    1744 936 v
    2024 896 v
    1756 836 v
    0 0 z
  EndSpiro
456 896 m 0,235,236
 491 1009 491 1009 476 1040 c 0,237,238
 455 1083 455 1083 496.025390625 1112.85449219 c 0,239,240
 525 1135 525 1135 579.5 1163.5 c 0,241,242
 590 1169 590 1169 621.479492188 1185.70410156 c 0,243,244
 653 1202 653 1202 668.056640625 1210.17382812 c 0,245,246
 683 1218 683 1218 708.893554688 1230.86621094 c 0,247,248
 734 1244 734 1244 756.3203125 1253.48925781 c 0,249,250
 778 1263 778 1263 800 1272 c 0,251,252
 872 1301 872 1301 954.5 1315.5 c 0,253,254
 1038 1330 1038 1330 1122 1330 c 0,255,256
 1198 1330 1198 1330 1286.5 1317 c 0,257,258
 1411 1300 1411 1300 1500 1250 c 0,259,260
 1525 1236 1525 1236 1555 1214.5 c 0,261,262
 1619 1169 1619 1169 1652 1128 c 0,263,264
 1662 1116 1662 1116 1670.90332031 1101.46289062 c 128,-1,265
 1680 1087 1680 1087 1691.31152344 1068.68847656 c 0,266,267
 1702 1050 1702 1050 1708.44726562 1040.88964844 c 0,268,269
 1733 1003 1733 1003 1775 961.5 c 0,270,271
 1807 930 1807 930 1816.42480469 908.986328125 c 0,272,273
 1824 893 1824 893 1823.76953125 876.41796875 c 0,274,275
 1824 860 1824 860 1816 844 c 0,276,277
 1807 826 1807 826 1781 803.5 c 0,278,279
 1741 769 1741 769 1723.85644531 747.909179688 c 0,280,281
 1715 737 1715 737 1698.95800781 714.966796875 c 128,-1,282
 1683 693 1683 693 1676 684 c 0,283,284
 1638 635 1638 635 1575 596 c 0,285,286
 1511 556 1511 556 1444 528 c 0,287,288
 1372 498 1372 498 1289.48925781 484.473632812 c 0,289,290
 1215 472 1215 472 1121.95800781 469.893554688 c 0,291,292
 997 467 997 467 892.989257812 483.473632812 c 0,293,294
 806 497 806 497 728 524 c 0,295,296
 544 589 544 589 550 626 c 0,297,298
 554 652 554 652 504 752 c 0,299,300
 496 768 496 768 488.942382812 784 c 0,301,302
 450 875 450 875 456 896 c 0,235,236
  Spiro
    456 896 o
    473.766 962.165 o
    480.446 1010.26 o
    476 1040 o
    468.892 1067.18 o
    475.58 1091.51 o
    496.025 1112.85 o
    518.153 1128.31 o
    546.033 1145.22 o
    579.5 1163.5 o
    588.819 1168.41 o
    602.841 1175.82 o
    621.479 1185.7 o
    640.646 1195.66 o
    656.203 1203.83 o
    668.057 1210.17 o
    679.223 1215.94 o
    692.863 1222.86 o
    708.894 1230.87 o
    725.305 1239.21 o
    741.146 1246.77 o
    756.32 1253.49 o
    770.795 1259.77 o
    785.384 1265.95 o
    800 1272 o
    849.116 1289.71 o
    900.719 1304.24 o
    954.5 1315.5 o
    1010.17 1323.55 o
    1066.11 1328.39 o
    1122 1330 o
    1174 1328.56 o
    1228.95 1324.22 o
    1286.5 1317 o
    1365.48 1302.02 o
    1436.79 1279.64 o
    1500 1250 o
    1517.2 1239.84 o
    1535.57 1227.99 o
    1555 1214.5 o
    1594.19 1184.7 o
    1626.58 1155.81 o
    1652 1128 o
    1658.54 1119.73 o
    1664.85 1110.86 o
    1670.9 1101.46 o
    1677.21 1091.4 o
    1684.02 1080.46 o
    1691.31 1068.69 o
    1697.96 1057.3 o
    1703.68 1048.02 o
    1708.45 1040.89 o
    1726.73 1015.25 o
    1748.96 988.739 o
    1775 961.5 o
    1793.81 941.684 o
    1807.64 924.144 o
    1816.42 908.986 o
    1820.6 898.273 o
    1823.06 887.396 o
    1823.77 876.418 o
    1823.01 865.53 o
    1820.42 854.702 o
    1816 844 o
    1808.12 831.513 o
    1796.43 817.986 o
    1781 803.5 o
    1756.89 782.01 o
    1737.81 763.443 o
    1723.86 747.909 o
    1717.16 739.41 o
    1708.85 728.407 o
    1698.96 714.967 o
    1689.32 701.775 o
    1681.66 691.432 o
    1676 684 o
    1647.92 652.475 o
    1614.19 623.083 o
    1575 596 o
    1532.04 570.691 o
    1488.29 547.979 o
    1444 528 o
    1394.88 509.847 o
    1343.28 495.309 o
    1289.49 484.474 o
    1237.82 477.316 o
    1181.87 472.446 o
    1121.96 469.894 o
    1041.06 470.114 o
    964.583 474.65 o
    892.989 483.474 o
    836.051 493.976 o
    780.945 507.512 o
    728 524 o
    626.525 564.185 o
    567.073 598.253 o
    550 626 o
    546.676 651.522 o
    531.312 693.606 o
    504 752 o
    498.776 762.656 o
    493.747 773.344 o
    488.942 784 o
    467.99 836.844 o
    456.988 874.252 o
    0 0 z
  EndSpiro
EndSplineSet
EndChar

StartChar: h
Encoding: 104 104 39
Width: 2048
InSpiro: 1
Flags: W
LayerCount: 2
Fore
SplineSet
1058.72265625 1197 m 1,0,-1
 1102.38378906 1284.92871094 l 1,1,2
 1135.17283095 1328.62151017 1135.17283095 1328.62151017 1188.01953125 1408.80078125 c 0,3,4
 1247.14473699 1498.50173374 1247.14473699 1498.50173374 1290.4140625 1535.84179688 c 0,5,6
 1346.53355867 1584.26897258 1346.53355867 1584.26897258 1429.64941406 1609.25390625 c 0,7,8
 1524.01195778 1637.61927357 1524.01195778 1637.61927357 1600.18457031 1622.97949219 c 0,9,10
 1660.87494539 1611.3152848 1660.87494539 1611.3152848 1712.25683594 1572.01855469 c 128,-1,11
 1759.11484358 1536.18030423 1759.11484358 1536.18030423 1797.29394531 1477.96679688 c 0,12,13
 1885.54706759 1343.40211987 1885.54706759 1343.40211987 1900.76953125 1164 c 0,14,15
 1911.09886243 1042.27085011 1911.09886243 1042.27085011 1880.4765625 926.784179688 c 0,16,17
 1843.76174739 788.333859512 1843.76174739 788.333859512 1753.90722656 685.493164062 c 0,18,19
 1690.31808363 612.711300222 1690.31808363 612.711300222 1570.60058594 533.631835938 c 0,20,21
 1547.66555427 518.481956013 1547.66555427 518.481956013 1502.92735688 489.650710113 c 0,22,23
 1458.18915949 460.819464212 1458.18915949 460.819464212 1430.57659514 442.732117646 c 0,24,25
 1402.9640308 424.64477108 1402.9640308 424.64477108 1365.49849336 398.087264068 c 0,26,27
 1328.03295592 371.529757055 1328.03295592 371.529757055 1297.82714844 347.239257812 c 128,-1,22
 1163.83615383 239.486669039 1163.83615383 239.486669039 1068.00585938 104.528320312 c 1,23,24
 970.454966735 237.440212601 970.454966735 237.440212601 835.608398438 343.178710938 c 128,-1,25
 796.349797133 373.963365861 796.349797133 373.963365861 754.853825409 402.159997802 c 0,26,27
 713.357853685 430.356629742 713.357853685 430.356629742 645.985367299 472.712072511 c 0,28,29
 578.612880913 515.06751528 578.612880913 515.06751528 561.700195312 526 c 0,26,27
 441.342119941 603.801101457 441.342119941 603.801101457 377.065429688 676 c 0,28,29
 286.308257207 777.942467 286.308257207 777.942467 248.379882812 916 c 0,30,31
 216.740694328 1031.16852552 216.740694328 1031.16852552 226 1153 c 0,32,33
 239.645143404 1332.54738449 239.645143404 1332.54738449 326.709960938 1468 c 0,34,35
 364.377211658 1526.59895731 364.377211658 1526.59895731 410.915039062 1562.90722656 c 128,-1,36
 461.950885381 1602.72244718 461.950885381 1602.72244718 522.53515625 1615 c 0,37,38
 598.577050417 1630.40926059 598.577050417 1630.40926059 693.182617188 1603 c 0,39,40
 776.516948743 1578.85581863 776.516948743 1578.85581863 833.057617188 1531 c 0,41,42
 876.654331344 1494.09987865 876.654331344 1494.09987865 936.565429688 1405 c 0,43,44
 990.114864517 1325.36032263 990.114864517 1325.36032263 1023.28710938 1282 c 1,45,-1
 1058.72265625 1197 l 1,0,-1
  Spiro
    1058.72 1197 v
    1102.38 1284.93 v
    1188.02 1408.8 o
    1290.41 1535.84 o
    1429.65 1609.25 o
    1600.18 1622.98 o
    1797.29 1477.97 o
    1900.77 1164 o
    1880.48 926.784 o
    1753.91 685.493 o
    1570.6 533.632 o
    1068.01 104.528 v
    561.7 526 o
    377.065 676 o
    248.38 916 o
    226 1153 o
    326.71 1468 o
    522.535 1615 o
    693.183 1603 o
    833.058 1531 o
    936.565 1405 o
    1023.29 1282 v
    0 0 z
  EndSpiro
EndSplineSet
EndChar

StartChar: i
Encoding: 105 105 40
Width: 2048
Flags: W
LayerCount: 2
Fore
SplineSet
288 96 m 1,0,-1
 288 256 l 1,1,-1
 944 256 l 1,2,-1
 944 1408 l 1,3,-1
 288 1408 l 1,4,-1
 288 1568 l 1,5,-1
 1760 1568 l 1,6,-1
 1760 1408 l 1,7,-1
 1104 1408 l 1,8,-1
 1104 256 l 1,9,-1
 1760 256 l 1,10,-1
 1760 96 l 1,11,-1
 288 96 l 1,0,-1
EndSplineSet
EndChar

StartChar: j
Encoding: 106 106 41
Width: 2048
Flags: W
LayerCount: 2
Fore
SplineSet
288 96 m 1,0,-1
 1152 96 l 2,1,2
 1760 96 1760 96 1760 704 c 0,3,4
 1760 1024 1760 1024 1760 1568 c 1,5,-1
 1600 1568 l 1,6,7
 1600 1152 1600 1152 1600 672 c 0,8,9
 1600 256 1600 256 1184 256 c 2,10,-1
 288 256 l 1,11,-1
 288 96 l 1,0,-1
EndSplineSet
EndChar

StartChar: k
Encoding: 107 107 42
Width: 2048
Flags: W
LayerCount: 2
Fore
SplineSet
288 96 m 1,0,-1
 288 1568 l 1,1,-1
 448 1568 l 1,2,-1
 448 912 l 1,3,-1
 1456 1568 l 1,4,-1
 1760 1568 l 1,5,-1
 624 832 l 1,6,-1
 1760 96 l 1,7,-1
 1456 96 l 1,8,-1
 448 752 l 1,9,-1
 448 96 l 1,10,-1
 288 96 l 1,0,-1
EndSplineSet
EndChar

StartChar: l
Encoding: 108 108 43
Width: 2048
Flags: W
LayerCount: 2
Fore
SplineSet
288 96 m 1,0,-1
 288 1568 l 1,1,-1
 448 1568 l 1,2,-1
 448 256 l 1,3,-1
 1760 256 l 1,4,-1
 1760 96 l 1,5,-1
 288 96 l 1,0,-1
EndSplineSet
EndChar

StartChar: m
Encoding: 109 109 44
Width: 2048
Flags: W
LayerCount: 2
Fore
SplineSet
288 96 m 1,0,-1
 288 1568 l 1,1,-1
 496 1568 l 1,2,-1
 1024 864 l 1,3,-1
 1552 1568 l 1,4,-1
 1760 1568 l 1,5,-1
 1760 96 l 1,6,-1
 1600 96 l 1,7,8
 1600 576 1600 576 1600 1360 c 1,9,10
 1600 1360 1600 1360 1136 752 c 1,11,-1
 912 752 l 1,12,-1
 448 1360 l 1,13,-1
 448 96 l 1,14,-1
 288 96 l 1,0,-1
EndSplineSet
EndChar

StartChar: n
Encoding: 110 110 45
Width: 2048
Flags: W
LayerCount: 2
Fore
SplineSet
288 96 m 1,0,-1
 288 1568 l 1,1,-1
 496 1568 l 1,2,-1
 1600 288 l 1,3,-1
 1600 1568 l 1,4,-1
 1760 1568 l 1,5,-1
 1760 96 l 1,6,-1
 1552 96 l 1,7,-1
 448 1376 l 1,8,-1
 448 96 l 1,9,-1
 288 96 l 1,0,-1
EndSplineSet
EndChar

StartChar: z
Encoding: 122 122 46
Width: 2048
Flags: W
LayerCount: 2
Fore
SplineSet
288 1408 m 1,0,-1
 288 1568 l 1,1,-1
 1760 1568 l 1,2,-1
 1760 1360 l 1,3,-1
 480 256 l 1,4,-1
 1760 256 l 1,5,-1
 1760 96 l 1,6,-1
 288 96 l 1,7,-1
 288 304 l 1,8,-1
 1568 1408 l 1,9,-1
 288 1408 l 1,0,-1
EndSplineSet
EndChar

StartChar: p
Encoding: 112 112 47
Width: 2048
Flags: W
LayerCount: 2
Fore
SplineSet
288 96 m 1,0,-1
 288 1568 l 1,1,-1
 1408 1568 l 2,2,3
 1760 1568 1760 1568 1760 1160 c 128,-1,4
 1760 752 1760 752 1408 752 c 0,5,6
 1280 752 1280 752 448 752 c 1,7,8
 448 576 448 576 448 416 c 128,-1,9
 448 256 448 256 448 96 c 1,10,11
 384 96 384 96 288 96 c 1,0,-1
448 1408 m 1,12,-1
 448 912 l 1,13,-1
 1408 912 l 2,14,15
 1600 912 1600 912 1600 1160 c 128,-1,16
 1600 1408 1600 1408 1408 1408 c 0,17,18
 896 1408 896 1408 448 1408 c 1,12,-1
EndSplineSet
EndChar

StartChar: q
Encoding: 113 113 48
Width: 2048
Flags: W
LayerCount: 2
Fore
SplineSet
288 960 m 0,0,1
 288 1568 288 1568 896 1568 c 0,2,3
 1024 1568 1024 1568 1152 1568 c 0,4,5
 1760 1568 1760 1568 1760 960 c 0,6,7
 1760 832 1760 832 1760 592 c 1,8,-1
 1696 384 l 1,9,-1
 1648 320 l 1,10,-1
 1760 208 l 1,11,12
 1696 144 1696 144 1648 96 c 1,13,-1
 1536 208 l 1,14,-1
 1472 160 l 1,15,-1
 1248 96 l 1,16,17
 1013 96 1013 96 896 96 c 0,18,19
 288 96 288 96 288 704 c 0,20,21
 288 864 288 864 288 960 c 0,0,1
448 992 m 0,22,23
 448 832 448 832 447 671 c 0,24,25
 448 256 448 256 858 256 c 0,26,27
 1024 256 1024 256 1184 256 c 1,28,-1
 1344 288 l 1,29,-1
 1408 336 l 1,30,-1
 1248 496 l 1,31,32
 1328 576 1328 576 1360 608 c 1,33,-1
 1520 448 l 1,34,-1
 1584 544 l 1,35,-1
 1600 672 l 1,36,37
 1600 800 1600 800 1602 996 c 0,38,39
 1600 1408 1600 1408 1184 1408 c 0,40,41
 1056 1408 1056 1408 864 1408 c 0,42,43
 448 1408 448 1408 448 992 c 0,22,23
EndSplineSet
EndChar

StartChar: r
Encoding: 114 114 49
Width: 2048
Flags: W
LayerCount: 2
Fore
SplineSet
288 96 m 1,0,-1
 288 1568 l 1,1,-1
 1408 1568 l 2,2,3
 1760 1568 1760 1568 1760 1168 c 0,4,5
 1760 752 1760 752 1408 752 c 0,6,7
 1280 752 1280 752 976 752 c 1,8,-1
 1760 96 l 1,9,-1
 1504 96 l 1,10,-1
 720 752 l 1,11,-1
 448 752 l 1,12,13
 448 576 448 576 448 416 c 128,-1,14
 448 256 448 256 448 96 c 1,15,16
 384 96 384 96 288 96 c 1,0,-1
448 1408 m 1,17,-1
 448 912 l 1,18,-1
 1408 912 l 2,19,20
 1600 912 1600 912 1600 1160 c 128,-1,21
 1600 1408 1600 1408 1408 1408 c 0,22,23
 896 1408 896 1408 448 1408 c 1,17,-1
EndSplineSet
EndChar

StartChar: s
Encoding: 115 115 50
Width: 2048
Flags: W
LayerCount: 2
Fore
SplineSet
1760 1408 m 1,0,-1
 640 1408 l 2,1,2
 448 1408 448 1408 448 1160 c 128,-1,3
 448 912 448 912 640 912 c 2,4,-1
 1408 912 l 2,5,6
 1760 912 1760 912 1760 504 c 128,-1,7
 1760 96 1760 96 1408 96 c 2,8,-1
 288 96 l 1,9,-1
 288 256 l 1,10,-1
 1408 256 l 2,11,12
 1600 256 1600 256 1600 504 c 128,-1,13
 1600 752 1600 752 1408 752 c 2,14,-1
 640 752 l 2,15,16
 288 752 288 752 288 1160 c 128,-1,17
 288 1568 288 1568 640 1568 c 2,18,-1
 1760 1568 l 1,19,-1
 1760 1408 l 1,0,-1
EndSplineSet
EndChar

StartChar: t
Encoding: 116 116 51
Width: 2048
InSpiro: 1
Flags: W
LayerCount: 2
Fore
SplineSet
2 852 m 128,-1,1
 2.70296748224 913.685622194 2.70296748224 913.685622194 13.5 978.25 c 0,2,3
 24.7115254093 1045.29297325 24.7115254093 1045.29297325 48 1099 c 0,4,5
 56.4856765143 1118.56935624 56.4856765143 1118.56935624 74.7399683745 1154.98656359 c 0,6,7
 92.9942602348 1191.40377094 92.9942602348 1191.40377094 100.75 1208.75 c 0,6,7
 131.059213435 1276.53857658 131.059213435 1276.53857658 141 1293 c 0,8,9
 164 1331 164 1331 216 1380 c 0,10,11
 283 1443 283 1443 315 1467 c 0,12,13
 378 1514 378 1514 444 1521 c 0,14,15
 487 1526 487 1526 597 1509 c 0,16,17
 668 1498 668 1498 696 1491 c 0,18,19
 757 1475 757 1475 810 1440 c 0,20,21
 840.215331429 1419.91839436 840.215331429 1419.91839436 888.75 1379 c 0,22,23
 943.670642019 1332.69774731 943.670642019 1332.69774731 972 1302 c 0,24,25
 1009.15254595 1261.74142908 1009.15254595 1261.74142908 1040.25 1208.75 c 0,26,27
 1071.26083356 1155.90617605 1071.26083356 1155.90617605 1093 1099 c 0,28,29
 1115.55055528 1039.96986781 1115.55055528 1039.96986781 1126.75 978.25 c 0,30,31
 1137.97435785 916.392836488 1137.97435785 916.392836488 1138 852 c 128,-1,32
 1138.02568218 787.506618457 1138.02568218 787.506618457 1126.75 725.75 c 0,33,34
 1115.55181979 664.417857831 1115.55181979 664.417857831 1093 605 c 0,35,36
 1071.0629079 547.20178098 1071.0629079 547.20178098 1040.25 495.25 c 0,37,38
 1009.62896859 443.621730381 1009.62896859 443.621730381 972 402 c 0,39,40
 935.602956192 361.740912371 935.602956192 361.740912371 888.75 325.5 c 0,41,42
 839.396896819 287.325215889 839.396896819 287.325215889 791 266 c 128,-1,43
 767.629879511 255.702379749 767.629879511 255.702379749 683.25 228.5 c 0,44,45
 600.573650854 201.846804253 600.573650854 201.846804253 585 198 c 0,46,47
 505 178 505 178 435 201 c 0,48,49
 400 212 400 212 333 249 c 0,50,51
 272 282 272 282 243 309 c 0,52,53
 222 329 222 329 169 402 c 0,54,55
 163.341236333 409.862209753 163.341236333 409.862209753 138.169461014 443.138260381 c 0,56,57
 112.997685695 476.414311008 112.997685695 476.414311008 100.75 495.25 c 0,56,57
 71.2077729781 540.6829262 71.2077729781 540.6829262 48 605 c 0,58,59
 24.7215082533 669.513060905 24.7215082533 669.513060905 13.5 725.75 c 0,60,0
 1.26028438207 787.089717104 1.26028438207 787.089717104 2 852 c 128,-1,1
  Spiro
    2 852 o
    13.5 978.25 o
    48 1099 o
    100.75 1208.75 o
    141 1293 o
    216 1380 o
    315 1467 o
    444 1521 o
    597 1509 o
    696 1491 o
    810 1440 o
    888.75 1379 o
    972 1302 o
    1040.25 1208.75 o
    1093 1099 o
    1126.75 978.25 o
    1138 852 o
    1126.75 725.75 o
    1093 605 o
    1040.25 495.25 o
    972 402 o
    888.75 325.5 o
    791 266 o
    683.25 228.5 o
    585 198 o
    435 201 o
    333 249 o
    243 309 o
    169 402 o
    100.75 495.25 o
    48 605 o
    13.5 725.75 o
    0 0 z
  EndSpiro
2592 204 m 1,61,-1
 435 201 l 1,62,-1
 444 1521 l 1,63,-1
 2568 1515 l 1,64,-1
 2592 204 l 1,61,-1
  Spiro
    2592 204 v
    435 201 v
    444 1521 v
    2568 1515 v
    0 0 z
  EndSpiro
EndSplineSet
EndChar

StartChar: u
Encoding: 117 117 52
Width: 2048
Flags: W
LayerCount: 2
Fore
SplineSet
2592 204 m 21,0,-1
 -138 198 l 5,1,-1
 -129 1521 l 5,2,-1
 2568 1515 l 13,3,-1
 2592 204 l 21,0,-1
EndSplineSet
EndChar

StartChar: v
Encoding: 118 118 53
Width: 2048
Flags: W
LayerCount: 2
Fore
SplineSet
1083 831 m 132,-1,1
 1083 970 1083 970 1161 1068 c 128,-1,2
 1239 1166 1239 1166 1350 1166.5 c 0,3,4
 1461 1166 1461 1166 1539 1068 c 128,-1,5
 1617 970 1617 970 1617 831 c 128,-1,6
 1617 692 1617 692 1539 594 c 128,-1,7
 1461 496 1461 496 1350 495.5 c 0,8,9
 1239 496 1239 496 1161 594 c 128,-1,0
 1083 692 1083 692 1083 831 c 132,-1,1
924 957 m 5,10,-1
 939 765 l 5,11,12
 962 618 962 618 1047 510 c 4,13,14
 1120 416 1120 416 1200 411 c 0,15,16
 1464 395 1464 395 1494 402 c 0,17,18
 1594 424 1594 424 1698 594 c 0,19,20
 1754 685 1754 685 1767 819 c 0,21,22
 1780 957 1780 957 1689 1140 c 0,23,24
 1679 1160 1679 1160 1536 1248 c 0,25,26
 1455.81473069 1297.49707982 1455.81473069 1297.49707982 1356 1302 c 0,27,28
 1271 1306 1271 1306 1137 1266 c 4,29,30
 1039 1237 1039 1237 1014 1200 c 4,31,32
 975 1145 975 1145 924 957 c 5,10,-1
1212 723 m 0,33,34
 1126 829 1126 829 1221.08203125 939.010742188 c 0,35,36
 1318 1050 1318 1050 1410.00292969 951.00390625 c 0,37,38
 1511 842 1511 842 1419 726 c 0,39,40
 1316 595 1316 595 1212 723 c 0,33,34
0 1524 m 5,41,-1
 0 201 l 5,42,-1
 1098 189 l 5,43,-1
 1011 255 l 5,44,-1
 840 348 l 5,45,-1
 777 483 l 5,46,-1
 696 699 l 5,47,-1
 681 927 l 5,48,-1
 699 1035 l 5,49,-1
 720 1176 l 5,50,-1
 1134 1521 l 5,51,-1
 0 1524 l 5,41,-1
649 852 m 132,-1,53
 649 711.5 649 711.5 701 583.5 c 4,54,55
 754 455.5 754 455.5 843 362.5 c 132,-1,56
 932 269.5 932 269.5 1055 214.5 c 4,57,58
 1177 160.5 1177 160.5 1312 160 c 128,-1,59
 1447 159.5 1447 159.5 1570 214.5 c 128,-1,60
 1693 269.5 1693 269.5 1782 362.5 c 128,-1,61
 1871 455.5 1871 455.5 1924 583.5 c 128,-1,62
 1977 711.5 1977 711.5 1977 852 c 128,-1,63
 1977 992.5 1977 992.5 1924 1120.5 c 128,-1,64
 1871 1248.5 1871 1248.5 1782 1341.5 c 128,-1,65
 1693 1434.5 1693 1434.5 1570 1489.5 c 0,66,67
 1448 1544.5 1448 1544.5 1313 1544.5 c 128,-1,68
 1178 1544.5 1178 1544.5 1055 1489.5 c 132,-1,69
 932 1434.5 932 1434.5 843 1341.5 c 132,-1,70
 754 1248.5 754 1248.5 701 1120.5 c 4,71,52
 649 992.5 649 992.5 649 852 c 132,-1,53
804 853.5 m 132,-1,73
 804 1004.5 804 1004.5 874 1133.5 c 132,-1,74
 944 1262.5 944 1262.5 1064 1336.5 c 132,-1,75
 1184 1410.5 1184 1410.5 1326 1411 c 0,76,77
 1468 1410.5 1468 1410.5 1588 1336.5 c 128,-1,78
 1708 1262.5 1708 1262.5 1778 1133.5 c 128,-1,79
 1848 1004.5 1848 1004.5 1848 853.5 c 128,-1,80
 1848 702.5 1848 702.5 1778 573.5 c 128,-1,81
 1708 444.5 1708 444.5 1588 370.5 c 128,-1,82
 1468 296.5 1468 296.5 1326 296 c 0,83,84
 1184 296.5 1184 296.5 1064 370.5 c 132,-1,85
 944 444.5 944 444.5 874 573.5 c 132,-1,72
 804 702.5 804 702.5 804 853.5 c 132,-1,73
EndSplineSet
EndChar

StartChar: w
Encoding: 119 119 54
Width: 2048
Flags: W
LayerCount: 2
Fore
SplineSet
45.5 870 m 0,0,1
 46.5 909 46.5 909 70.5 936 c 128,-1,2
 94.5 963 94.5 963 129.5 963 c 128,-1,3
 164.5 963 164.5 963 188.5 936 c 128,-1,4
 212.5 909 212.5 909 213 870 c 0,5,6
 212.5 831 212.5 831 188.5 804 c 128,-1,7
 164.5 777 164.5 777 129.5 777 c 128,-1,8
 94.5 777 94.5 777 70.5 804 c 128,-1,9
 46.5 831 46.5 831 45.5 870 c 0,0,1
1851.5 924 m 0,10,11
 1852.5 963 1852.5 963 1876.5 990 c 128,-1,12
 1900.5 1017 1900.5 1017 1935.5 1017 c 128,-1,13
 1970.5 1017 1970.5 1017 1994.5 990 c 128,-1,14
 2018.5 963 2018.5 963 2019 924 c 0,15,16
 2018.5 885 2018.5 885 1994.5 858 c 128,-1,17
 1970.5 831 1970.5 831 1935.5 831 c 128,-1,18
 1900.5 831 1900.5 831 1876.5 858 c 128,-1,19
 1852.5 885 1852.5 885 1851.5 924 c 0,10,11
1479.5 1116 m 0,20,21
 1480.5 1155 1480.5 1155 1504.5 1182 c 128,-1,22
 1528.5 1209 1528.5 1209 1563.5 1209 c 128,-1,23
 1598.5 1209 1598.5 1209 1622.5 1182 c 128,-1,24
 1646.5 1155 1646.5 1155 1647 1116 c 0,25,26
 1646.5 1077 1646.5 1077 1622.5 1050 c 128,-1,27
 1598.5 1023 1598.5 1023 1563.5 1023 c 128,-1,28
 1528.5 1023 1528.5 1023 1504.5 1050 c 128,-1,29
 1480.5 1077 1480.5 1077 1479.5 1116 c 0,20,21
423.5 1098 m 0,30,31
 424.5 1137 424.5 1137 448.5 1164 c 128,-1,32
 472.5 1191 472.5 1191 507.5 1191 c 128,-1,33
 542.5 1191 542.5 1191 566.5 1164 c 128,-1,34
 590.5 1137 590.5 1137 591 1098 c 0,35,36
 590.5 1059 590.5 1059 566.5 1032 c 128,-1,37
 542.5 1005 542.5 1005 507.5 1005 c 128,-1,38
 472.5 1005 472.5 1005 448.5 1032 c 128,-1,39
 424.5 1059 424.5 1059 423.5 1098 c 0,30,31
926 1629 m 128,-1,41
 926 1669.5 926 1669.5 951 1698.5 c 0,42,43
 977 1727.5 977 1727.5 1013.5 1727 c 128,-1,44
 1050 1726.5 1050 1726.5 1076 1698.5 c 0,45,46
 1102 1669.5 1102 1669.5 1102 1629 c 128,-1,47
 1102 1588.5 1102 1588.5 1076 1559.5 c 128,-1,48
 1050 1530.5 1050 1530.5 1013.5 1530.5 c 128,-1,49
 977 1530.5 977 1530.5 951 1559.5 c 0,50,40
 926 1588.5 926 1588.5 926 1629 c 128,-1,41
427 72 m 1,51,-1
 145 858 l 1,52,-1
 469 609 l 1,53,-1
 511 1086 l 1,54,-1
 796 618 l 1,55,-1
 1017 1608 l 1,56,-1
 1255 648 l 1,57,-1
 1549 1071 l 1,58,-1
 1621 648 l 1,59,-1
 1942 885 l 1,60,-1
 1690 72 l 1,61,-1
 427 72 l 1,51,-1
EndSplineSet
EndChar

StartChar: x
Encoding: 120 120 55
Width: 2048
Flags: W
LayerCount: 2
Fore
SplineSet
288 1568 m 5,0,-1
 912 832 l 5,1,-1
 288 96 l 5,2,-1
 496 96 l 5,3,-1
 1024 720 l 5,4,-1
 1552 96 l 5,5,-1
 1760 96 l 5,6,-1
 1136 832 l 5,7,-1
 1760 1568 l 5,8,-1
 1552 1568 l 5,9,-1
 1024 944 l 5,10,-1
 496 1568 l 5,11,-1
 288 1568 l 5,0,-1
EndSplineSet
EndChar

StartChar: y
Encoding: 121 121 56
Width: 2048
Flags: W
LayerCount: 2
Fore
SplineSet
288 1568 m 5,0,-1
 944 928 l 5,1,-1
 944 96 l 5,2,-1
 1104 96 l 5,3,-1
 1104 928 l 5,4,-1
 1760 1568 l 1,5,-1
 1536 1568 l 5,6,-1
 1024 1072 l 5,7,-1
 512 1568 l 5,8,-1
 288 1568 l 5,0,-1
EndSplineSet
EndChar

StartChar: zero
Encoding: 48 48 57
Width: 2048
Flags: W
LayerCount: 2
Fore
SplineSet
192 960 m 0,0,1
 192 1664 192 1664 896 1664 c 0,2,3
 1024 1664 1024 1664 1152 1664 c 0,4,5
 1856 1664 1856 1664 1856 960 c 0,6,7
 1856 832 1856 832 1856 704 c 0,8,9
 1856 0 1856 0 1152 0 c 0,10,11
 1013 0 1013 0 896 0 c 0,12,13
 192 0 192 0 192 704 c 0,14,15
 192 864 192 864 192 960 c 0,0,1
448 992 m 0,16,17
 448 832 448 832 447 671 c 0,18,19
 448 256 448 256 858 256 c 0,20,21
 1024 256 1024 256 1184 256 c 0,22,23
 1600 256 1600 256 1600 672 c 0,24,25
 1600 800 1600 800 1602 996 c 0,26,27
 1600 1408 1600 1408 1184 1408 c 0,28,29
 1056 1408 1056 1408 864 1408 c 0,30,31
 448 1408 448 1408 448 992 c 0,16,17
1408 1408 m 1,32,-1
 1600 1216 l 1,33,-1
 640 256 l 1,34,-1
 448 448 l 1,35,-1
 1408 1408 l 1,32,-1
EndSplineSet
EndChar

StartChar: one
Encoding: 49 49 58
Width: 2048
Flags: W
LayerCount: 2
Fore
SplineSet
192 0 m 1,0,-1
 192 256 l 1,1,-1
 896 256 l 1,2,-1
 896 1344 l 1,3,-1
 576 1088 l 1,4,-1
 576 1408 l 1,5,-1
 896 1664 l 1,6,-1
 1152 1664 l 1,7,-1
 1152 1408 l 1,8,-1
 1152 256 l 1,9,-1
 1856 256 l 1,10,-1
 1856 0 l 1,11,-1
 192 0 l 1,0,-1
EndSplineSet
EndChar

StartChar: two
Encoding: 50 50 59
Width: 2048
Flags: W
LayerCount: 2
Fore
SplineSet
384 1216 m 1,0,-1
 192 1408 l 1,1,2
 434 1664 434 1664 1024 1664 c 0,3,4
 1856 1664 1856 1664 1856 1088 c 0,5,6
 1856 736 1856 736 576 256 c 1,7,-1
 1856 256 l 1,8,-1
 1856 0 l 1,9,-1
 192 0 l 1,10,-1
 192 352 l 1,11,12
 1664 928 1664 928 1600 1168 c 128,-1,13
 1536 1408 1536 1408 1024 1408 c 0,14,15
 496 1408 496 1408 384 1216 c 1,0,-1
EndSplineSet
EndChar

StartChar: three
Encoding: 51 51 60
Width: 2048
Flags: W
LayerCount: 2
Fore
SplineSet
192 0 m 1,0,-1
 192 256 l 1,1,-1
 448 704 l 1,2,-1
 448 960 l 1,3,-1
 192 1408 l 1,4,-1
 192 1664 l 1,5,-1
 1376 1664 l 2,6,7
 1856 1664 1856 1664 1856 1216 c 0,8,9
 1856 832 1856 832 1536 832 c 1,10,11
 1856 832 1856 832 1856 416 c 128,-1,12
 1856 0 1856 0 1376 0 c 2,13,-1
 192 0 l 1,0,-1
192 1408 m 1,14,-1
 448 960 l 1,15,-1
 1376 960 l 2,16,17
 1600 960 1600 960 1600 1184 c 128,-1,18
 1600 1408 1600 1408 1408 1408 c 0,19,20
 896 1408 896 1408 192 1408 c 1,14,-1
448 704 m 1,21,-1
 192 256 l 1,22,-1
 1408 256 l 2,23,24
 1600 256 1600 256 1600 480 c 128,-1,25
 1600 704 1600 704 1376 704 c 0,26,27
 896 704 896 704 448 704 c 1,21,-1
EndSplineSet
EndChar

StartChar: four
Encoding: 52 52 61
Width: 2048
Flags: W
LayerCount: 2
Fore
SplineSet
1600 0 m 1,0,-1
 1600 512 l 1,1,-1
 1856 512 l 1,2,-1
 1856 768 l 1,3,-1
 1600 768 l 1,4,-1
 1600 1664 l 1,5,-1
 1280 1664 l 1,6,-1
 192 832 l 1,7,-1
 192 512 l 1,8,-1
 1344 512 l 1,9,-1
 1344 0 l 1,10,-1
 1600 0 l 1,0,-1
1344 768 m 1,11,-1
 512 768 l 1,12,-1
 1344 1344 l 1,13,-1
 1344 768 l 1,11,-1
EndSplineSet
EndChar

StartChar: five
Encoding: 53 53 62
Width: 2048
Flags: W
LayerCount: 2
Fore
SplineSet
384 448 m 1,0,-1
 192 256 l 1,1,2
 434 0 434 0 1024 0 c 0,3,4
 1856 0 1856 0 1856 576 c 256,5,6
 1856 1152 1856 1152 448 1152 c 1,7,-1
 448 1408 l 1,8,-1
 1856 1408 l 1,9,-1
 1856 1664 l 1,10,-1
 192 1664 l 1,11,-1
 192 960 l 1,12,13
 1664 896 1664 896 1600 576 c 128,-1,14
 1536 256 1536 256 1024 256 c 0,15,16
 496 256 496 256 384 448 c 1,0,-1
EndSplineSet
EndChar

StartChar: eight
Encoding: 56 56 63
Width: 2048
Flags: W
LayerCount: 2
Fore
SplineSet
672 0 m 2,0,1
 192 0 192 0 192 416 c 128,-1,2
 192 832 192 832 512 832 c 1,3,4
 192 832 192 832 192 1248 c 128,-1,5
 192 1664 192 1664 672 1664 c 2,6,-1
 1376 1664 l 2,7,8
 1856 1664 1856 1664 1856 1216 c 0,9,10
 1856 832 1856 832 1536 832 c 1,11,12
 1856 832 1856 832 1856 416 c 128,-1,13
 1856 0 1856 0 1376 0 c 2,14,-1
 672 0 l 2,0,1
640 1408 m 0,15,16
 448 1408 448 1408 448 1184 c 128,-1,17
 448 960 448 960 672 960 c 2,18,-1
 1376 960 l 2,19,20
 1600 960 1600 960 1600 1184 c 128,-1,21
 1600 1408 1600 1408 1408 1408 c 0,22,23
 896 1408 896 1408 640 1408 c 0,15,16
672 704 m 256,24,25
 448 704 448 704 448 480 c 128,-1,26
 448 256 448 256 640 256 c 2,27,-1
 1408 256 l 2,28,29
 1600 256 1600 256 1600 480 c 128,-1,30
 1600 704 1600 704 1376 704 c 0,31,32
 896 704 896 704 672 704 c 256,24,25
EndSplineSet
EndChar

StartChar: seven
Encoding: 55 55 64
Width: 2048
Flags: W
LayerCount: 2
Fore
SplineSet
1856 1664 m 1,0,-1
 952 0 l 1,1,-1
 656 0 l 1,2,-1
 1424 1408 l 1,3,-1
 192 1408 l 1,4,-1
 192 1664 l 1,5,-1
 1856 1664 l 1,0,-1
EndSplineSet
EndChar

StartChar: six
Encoding: 54 54 65
Width: 2048
Flags: W
LayerCount: 2
Fore
SplineSet
1344 1664 m 1,0,1
 192 1664 192 1664 192 832 c 128,-1,2
 192 0 192 0 640 0 c 2,3,-1
 1408 0 l 2,4,5
 1856 0 1856 0 1856 480 c 128,-1,6
 1856 960 1856 960 1408 960 c 0,7,8
 1280 960 1280 960 640 960 c 0,9,10
 416 960 416 960 488 1096 c 128,-1,11
 560 1232 560 1232 768 1320 c 128,-1,12
 976 1408 976 1408 1344 1408 c 1,13,14
 1344 1536 1344 1536 1344 1664 c 1,0,1
640 256 m 0,15,16
 544 256 544 256 480 480 c 128,-1,17
 416 704 416 704 640 704 c 2,18,-1
 1408 704 l 2,19,20
 1600 704 1600 704 1600 480 c 128,-1,21
 1600 256 1600 256 1408 256 c 0,22,23
 896 256 896 256 640 256 c 0,15,16
EndSplineSet
EndChar

StartChar: nine
Encoding: 57 57 66
Width: 2048
Flags: W
LayerCount: 2
Fore
SplineSet
704 0 m 1,0,1
 1856 0 1856 0 1856 832 c 128,-1,2
 1856 1664 1856 1664 1408 1664 c 2,3,-1
 640 1664 l 2,4,5
 192 1664 192 1664 192 1184 c 128,-1,6
 192 704 192 704 640 704 c 0,7,8
 768 704 768 704 1408 704 c 0,9,10
 1632 704 1632 704 1560 568 c 128,-1,11
 1488 432 1488 432 1280 344 c 128,-1,12
 1072 256 1072 256 704 256 c 1,13,14
 704 128 704 128 704 0 c 1,0,1
1408 1408 m 0,15,16
 1504 1408 1504 1408 1568 1184 c 128,-1,17
 1632 960 1632 960 1408 960 c 2,18,-1
 640 960 l 2,19,20
 448 960 448 960 448 1184 c 128,-1,21
 448 1408 448 1408 640 1408 c 0,22,23
 1152 1408 1152 1408 1408 1408 c 0,15,16
EndSplineSet
EndChar

StartChar: colon
Encoding: 58 58 67
Width: 2048
Flags: W
LayerCount: 2
Fore
SplineSet
832 1472 m 1,0,-1
 1216 1472 l 1,1,-1
 1216 1088 l 1,2,-1
 832 1088 l 1,3,-1
 832 1472 l 1,0,-1
832 576 m 1,4,-1
 1216 576 l 1,5,-1
 1216 192 l 1,6,-1
 832 192 l 1,7,-1
 832 576 l 1,4,-1
EndSplineSet
EndChar

StartChar: semicolon
Encoding: 59 59 68
Width: 2048
Flags: W
LayerCount: 2
Fore
SplineSet
832 1472 m 1,0,-1
 1216 1472 l 1,1,-1
 1216 1088 l 1,2,-1
 832 1088 l 1,3,-1
 832 1472 l 1,0,-1
832 576 m 1,4,-1
 1216 576 l 1,5,-1
 1216 192 l 1,6,-1
 1024 -128 l 1,7,-1
 832 -128 l 1,8,-1
 1024 192 l 1,9,-1
 832 192 l 1,10,-1
 832 576 l 1,4,-1
EndSplineSet
EndChar

StartChar: comma
Encoding: 44 44 69
Width: 2048
Flags: W
LayerCount: 2
Fore
SplineSet
832 576 m 1,0,-1
 1216 576 l 1,1,-1
 1216 192 l 1,2,-1
 1024 -128 l 1,3,-1
 832 -128 l 1,4,-1
 1024 192 l 1,5,-1
 832 192 l 1,6,-1
 832 576 l 1,0,-1
EndSplineSet
EndChar

StartChar: period
Encoding: 46 46 70
Width: 2048
Flags: W
LayerCount: 2
Fore
SplineSet
832 576 m 1,0,-1
 1216 576 l 1,1,-1
 1216 192 l 1,2,-1
 832 192 l 1,3,-1
 832 576 l 1,0,-1
EndSplineSet
EndChar

StartChar: hyphen
Encoding: 45 45 71
Width: 2048
Flags: W
LayerCount: 2
Fore
SplineSet
192 960 m 1,0,-1
 1856 960 l 1,1,2
 1856 669 1856 669 1856 704 c 1,3,4
 1855 704 1855 704 192 704 c 1,5,-1
 192 960 l 1,0,-1
EndSplineSet
EndChar

StartChar: plus
Encoding: 43 43 72
Width: 2048
Flags: W
LayerCount: 2
Fore
SplineSet
192 960 m 1,0,-1
 894 960 l 1,1,2
 894 1178 894 1178 896 1664 c 1,3,4
 976 1663 976 1663 1152 1664 c 1,5,-1
 1150 962 l 1,6,-1
 1856 960 l 1,7,-1
 1856 704 l 1,8,-1
 1152 704 l 1,9,-1
 1152 0 l 1,10,-1
 896 0 l 1,11,-1
 896 704 l 1,12,-1
 192 704 l 1,13,-1
 192 960 l 1,0,-1
EndSplineSet
EndChar

StartChar: slash
Encoding: 47 47 73
Width: 2048
Flags: W
LayerCount: 2
Fore
SplineSet
1632 1664 m 1,0,-1
 728 0 l 1,1,-1
 432 0 l 1,2,-1
 1336 1664 l 1,3,-1
 1632 1664 l 1,0,-1
EndSplineSet
EndChar

StartChar: asterisk
Encoding: 42 42 74
Width: 2048
Flags: W
LayerCount: 2
Fore
SplineSet
192 960 m 1,0,-1
 704 960 l 1,1,-1
 384 1344 l 1,2,-1
 576 1536 l 1,3,-1
 1024 960 l 1,4,-1
 1472 1536 l 1,5,-1
 1664 1344 l 1,6,-1
 1344 960 l 1,7,-1
 1856 960 l 1,8,9
 1856 704 1856 704 1856 704 c 1,10,11
 1739 704 1739 704 1344 704 c 1,12,13
 1344 704 1344 704 1664 320 c 1,14,15
 1664 320 1664 320 1472 128 c 1,16,17
 1472 128 1472 128 1024 704 c 1,18,19
 1024 704 1024 704 576 128 c 1,20,21
 576 128 576 128 384 320 c 1,22,23
 704 704 704 704 704 704 c 1,24,25
 601 704 601 704 192 704 c 1,26,-1
 192 960 l 1,0,-1
EndSplineSet
EndChar

StartChar: parenleft
Encoding: 40 40 75
Width: 2048
Flags: W
LayerCount: 2
Fore
SplineSet
1152 1792 m 1,0,-1
 1248 1536 l 1,1,2
 896 1536 896 1536 896 896 c 256,3,4
 896 256 896 256 1248 128 c 1,5,-1
 1152 -128 l 1,6,7
 640 128 640 128 640 896 c 256,8,9
 640 1664 640 1664 1152 1792 c 1,0,-1
EndSplineSet
EndChar

StartChar: parenright
Encoding: 41 41 76
Width: 2048
Flags: W
LayerCount: 2
Fore
SplineSet
896 1792 m 1,0,-1
 800 1536 l 1,1,2
 1152 1536 1152 1536 1152 896 c 256,3,4
 1152 256 1152 256 800 128 c 1,5,-1
 896 -128 l 1,6,7
 1408 128 1408 128 1408 896 c 256,8,9
 1408 1664 1408 1664 896 1792 c 1,0,-1
EndSplineSet
EndChar

StartChar: quotesingle
Encoding: 39 39 77
Width: 2048
Flags: W
LayerCount: 2
Fore
SplineSet
832 1664 m 1,0,-1
 1216 1664 l 1,1,-1
 1216 1280 l 1,2,-1
 1024 960 l 1,3,-1
 832 1280 l 1,4,-1
 832 1664 l 1,0,-1
EndSplineSet
EndChar

StartChar: quotedbl
Encoding: 34 34 78
Width: 2048
Flags: W
LayerCount: 2
Fore
SplineSet
1152 1664 m 1,0,-1
 1536 1664 l 1,1,-1
 1536 1280 l 1,2,-1
 1344 960 l 1,3,-1
 1152 1280 l 1,4,-1
 1152 1664 l 1,0,-1
1152 1664 m 1,5,-1
 1536 1664 l 1,6,-1
 1536 1280 l 1,7,-1
 1344 960 l 1,8,-1
 1152 1280 l 1,9,-1
 1152 1664 l 1,5,-1
512 1664 m 1,10,-1
 896 1664 l 1,11,-1
 896 1280 l 1,12,-1
 704 960 l 1,13,-1
 512 1280 l 1,14,-1
 512 1664 l 1,10,-1
512 1664 m 1,15,-1
 896 1664 l 1,16,-1
 896 1280 l 1,17,-1
 704 960 l 1,18,-1
 512 1280 l 1,19,-1
 512 1664 l 1,15,-1
EndSplineSet
EndChar

StartChar: exclam
Encoding: 33 33 79
Width: 2048
Flags: W
LayerCount: 2
Fore
SplineSet
896 1664 m 1,0,-1
 1152 1664 l 1,1,-1
 1152 512 l 1,2,-1
 896 512 l 1,3,-1
 896 1664 l 1,0,-1
896 256 m 1,4,-1
 1152 256 l 1,5,-1
 1152 0 l 1,6,-1
 896 0 l 1,7,-1
 896 256 l 1,4,-1
EndSplineSet
EndChar

StartChar: numbersign
Encoding: 35 35 80
Width: 2048
Flags: W
LayerCount: 2
Fore
SplineSet
192 1280 m 1,0,-1
 576 1280 l 1,1,-1
 576 1664 l 1,2,-1
 832 1664 l 1,3,-1
 832 1280 l 1,4,-1
 1216 1280 l 1,5,-1
 1216 1664 l 1,6,-1
 1472 1664 l 1,7,-1
 1472 1280 l 1,8,-1
 1856 1280 l 1,9,-1
 1856 1024 l 1,10,-1
 1472 1024 l 1,11,-1
 1472 640 l 1,12,-1
 1856 640 l 1,13,-1
 1856 384 l 1,14,-1
 1472 384 l 1,15,-1
 1472 0 l 1,16,-1
 1216 0 l 1,17,-1
 1216 384 l 1,18,-1
 832 384 l 1,19,-1
 832 0 l 1,20,-1
 576 0 l 1,21,-1
 576 384 l 1,22,-1
 192 384 l 1,23,-1
 192 640 l 1,24,-1
 576 640 l 1,25,-1
 576 1024 l 1,26,-1
 192 1024 l 1,27,-1
 192 1280 l 1,0,-1
832 1024 m 1,28,-1
 832 640 l 1,29,-1
 1216 640 l 1,30,-1
 1216 1024 l 1,31,-1
 832 1024 l 1,28,-1
EndSplineSet
EndChar

StartChar: dollar
Encoding: 36 36 81
Width: 2048
Flags: W
LayerCount: 2
Fore
SplineSet
1856 1280 m 1,0,-1
 640 1280 l 2,1,2
 448 1280 448 1280 448 1120 c 128,-1,3
 448 960 448 960 640 960 c 2,4,-1
 1408 960 l 2,5,6
 1856 960 1856 960 1856 544 c 128,-1,7
 1856 128 1856 128 1408 128 c 2,8,-1
 192 128 l 1,9,-1
 192 384 l 1,10,-1
 1408 384 l 2,11,12
 1600 384 1600 384 1600 544 c 128,-1,13
 1600 704 1600 704 1408 704 c 2,14,-1
 640 704 l 2,15,16
 192 704 192 704 192 1120 c 128,-1,17
 192 1536 192 1536 640 1536 c 2,18,-1
 1856 1536 l 1,19,-1
 1856 1280 l 1,0,-1
896 1664 m 1,20,-1
 1152 1664 l 1,21,-1
 1152 0 l 1,22,-1
 896 0 l 1,23,-1
 896 1664 l 1,20,-1
EndSplineSet
EndChar

StartChar: percent
Encoding: 37 37 82
Width: 2048
Flags: W
LayerCount: 2
Fore
SplineSet
1632 1664 m 1,0,-1
 728 0 l 1,1,-1
 432 0 l 1,2,-1
 1336 1664 l 1,3,-1
 1632 1664 l 1,0,-1
384 1664 m 1,4,-1
 768 1664 l 1,5,-1
 768 1280 l 1,6,-1
 384 1280 l 1,7,-1
 384 1664 l 1,4,-1
1280 384 m 1,8,-1
 1664 384 l 1,9,-1
 1664 0 l 1,10,-1
 1280 0 l 1,11,-1
 1280 384 l 1,8,-1
EndSplineSet
EndChar

StartChar: ampersand
Encoding: 38 38 83
Width: 2048
Flags: W
LayerCount: 2
Fore
SplineSet
672 0 m 2,0,1
 192 0 192 0 192 384 c 128,-1,2
 192 768 192 768 512 928 c 1,3,4
 320 1088 320 1088 320 1376 c 128,-1,5
 320 1664 320 1664 672 1664 c 2,6,-1
 896 1664 l 2,7,8
 1280 1664 1280 1664 1280 1216 c 1,9,10
 1216 960 1216 960 960 864 c 1,11,12
 1152 704 1152 704 1280 576 c 1,13,-1
 1664 960 l 1,14,-1
 1856 768 l 1,15,-1
 1472 384 l 1,16,-1
 1728 160 l 1,17,-1
 1536 0 l 1,18,-1
 1312 192 l 1,19,20
 1216 64 1216 64 960 0 c 1,21,-1
 672 0 l 2,0,1
768 1408 m 0,22,23
 576 1408 576 1408 576 1280 c 0,24,25
 576 1216 576 1216 640 1152 c 2,26,-1
 768 1024 l 1,27,-1
 960 1152 l 1,28,29
 1024 1184 1024 1184 1024 1296 c 128,-1,30
 1024 1408 1024 1408 896 1408 c 0,31,32
 832 1408 832 1408 768 1408 c 0,22,23
544 640 m 0,33,34
 448 544 448 544 448 400 c 128,-1,35
 448 256 448 256 672 256 c 2,36,-1
 896 256 l 1,37,38
 992 288 992 288 1088 384 c 1,39,40
 896 576 896 576 704 736 c 1,41,42
 608 704 608 704 544 640 c 0,33,34
EndSplineSet
EndChar

StartChar: less
Encoding: 60 60 84
Width: 2048
Flags: W
LayerCount: 2
Fore
SplineSet
1856 1664 m 1,0,-1
 192 1024 l 1,1,-1
 192 640 l 1,2,-1
 1856 0 l 1,3,-1
 1856 272 l 1,4,-1
 416 832 l 1,5,-1
 1856 1392 l 1,6,-1
 1856 1664 l 1,0,-1
EndSplineSet
EndChar

StartChar: greater
Encoding: 62 62 85
Width: 2048
Flags: W
LayerCount: 2
Fore
SplineSet
192 1664 m 1,0,-1
 1856 1024 l 1,1,-1
 1856 640 l 1,2,-1
 192 0 l 1,3,-1
 192 272 l 1,4,-1
 1632 832 l 1,5,-1
 192 1392 l 1,6,-1
 192 1664 l 1,0,-1
EndSplineSet
EndChar

StartChar: equal
Encoding: 61 61 86
Width: 2048
Flags: W
LayerCount: 2
Fore
SplineSet
192 1344 m 1,0,-1
 1856 1344 l 1,1,2
 1856 1053 1856 1053 1856 1088 c 1,3,4
 1855 1088 1855 1088 192 1088 c 1,5,-1
 192 1344 l 1,0,-1
192 576 m 1,6,-1
 1856 576 l 1,7,8
 1856 285 1856 285 1856 320 c 1,9,10
 1855 320 1855 320 192 320 c 1,11,-1
 192 576 l 1,6,-1
EndSplineSet
EndChar

StartChar: question
Encoding: 63 63 87
Width: 2048
Flags: W
LayerCount: 2
Fore
SplineSet
384 1216 m 1,0,-1
 192 1408 l 1,1,2
 434 1664 434 1664 1024 1664 c 0,3,4
 1856 1664 1856 1664 1856 1152 c 256,5,6
 1856 640 1856 640 1152 640 c 1,7,-1
 1152 512 l 1,8,-1
 896 512 l 1,9,-1
 896 896 l 1,10,11
 1600 896 1600 896 1600 1152 c 128,-1,12
 1600 1408 1600 1408 1024 1408 c 0,13,14
 496 1408 496 1408 384 1216 c 1,0,-1
896 256 m 1,15,-1
 1152 256 l 1,16,-1
 1152 0 l 1,17,-1
 896 0 l 1,18,-1
 896 256 l 1,15,-1
EndSplineSet
EndChar

StartChar: at
Encoding: 64 64 88
Width: 2048
Flags: W
LayerCount: 2
Fore
SplineSet
1344 832 m 2,0,1
 1344 1152 1344 1152 1024 1151 c 0,2,3
 704 1152 704 1152 704 832 c 256,4,5
 704 512 704 512 1024 512 c 2,6,-1
 1856 512 l 1,7,8
 1856 1664 1856 1664 1024 1664 c 256,9,10
 192 1664 192 1664 192 896 c 0,11,12
 192 0 192 0 1024 0 c 2,13,-1
 1856 0 l 1,14,-1
 1856 256 l 1,15,-1
 1024 256 l 2,16,17
 448 256 448 256 448 832 c 256,18,19
 448 1408 448 1408 1024 1408 c 256,20,21
 1600 1408 1600 1408 1600 704 c 1,22,-1
 1344 704 l 1,23,-1
 1344 832 l 2,0,1
EndSplineSet
EndChar

StartChar: bracketleft
Encoding: 91 91 89
Width: 2048
Flags: W
LayerCount: 2
Fore
SplineSet
1344 1792 m 1,0,-1
 704 1792 l 1,1,-1
 704 -128 l 1,2,-1
 1344 -128 l 1,3,-1
 1344 128 l 1,4,-1
 960 128 l 1,5,-1
 960 1536 l 1,6,-1
 1344 1536 l 1,7,-1
 1344 1792 l 1,0,-1
EndSplineSet
EndChar

StartChar: bracketright
Encoding: 93 93 90
Width: 2048
Flags: W
LayerCount: 2
Fore
SplineSet
704 1792 m 1,0,-1
 1344 1792 l 1,1,-1
 1344 -128 l 1,2,-1
 704 -128 l 1,3,-1
 704 128 l 1,4,-1
 1088 128 l 1,5,-1
 1088 1536 l 1,6,-1
 704 1536 l 1,7,-1
 704 1792 l 1,0,-1
EndSplineSet
EndChar

StartChar: backslash
Encoding: 92 92 91
Width: 2048
Flags: W
LayerCount: 2
Fore
SplineSet
432 1664 m 1,0,-1
 1336 0 l 1,1,-1
 1632 0 l 1,2,-1
 728 1664 l 1,3,-1
 432 1664 l 1,0,-1
EndSplineSet
EndChar

StartChar: asciicircum
Encoding: 94 94 92
Width: 2048
Flags: W
LayerCount: 2
Fore
SplineSet
512 832 m 1,0,1
 512 832 512 832 832 1664 c 1,2,-1
 1216 1664 l 1,3,-1
 1536 832 l 1,4,-1
 1264 832 l 1,5,-1
 1024 1440 l 1,6,7
 1024 1440 1024 1440 784 832 c 1,8,9
 672 832 672 832 512 832 c 1,0,1
EndSplineSet
EndChar

StartChar: underscore
Encoding: 95 95 93
Width: 2048
Flags: W
LayerCount: 2
Fore
SplineSet
192 256 m 1,0,-1
 1856 256 l 1,1,2
 1856 -35 1856 -35 1856 0 c 1,3,4
 1855 0 1855 0 192 0 c 1,5,-1
 192 256 l 1,0,-1
EndSplineSet
EndChar

StartChar: grave
Encoding: 96 96 94
Width: 2048
Flags: W
LayerCount: 2
Fore
SplineSet
1216 1664 m 1,0,-1
 832 1664 l 1,1,-1
 832 1280 l 1,2,-1
 1024 1280 l 1,3,-1
 1216 960 l 1,4,-1
 1408 960 l 1,5,-1
 1216 1280 l 1,6,-1
 1216 1664 l 1,0,-1
EndSplineSet
EndChar

StartChar: bar
Encoding: 124 124 95
Width: 2048
Flags: W
LayerCount: 2
Fore
SplineSet
896 1792 m 1,0,-1
 1152 1792 l 1,1,-1
 1152 -128 l 1,2,-1
 896 -128 l 1,3,-1
 896 1792 l 1,0,-1
EndSplineSet
EndChar

StartChar: braceleft
Encoding: 123 123 96
Width: 2048
Flags: W
LayerCount: 2
Fore
SplineSet
1344 1792 m 1,0,-1
 1344 1536 l 1,1,2
 1024 1536 1024 1536 1024 1344 c 0,3,4
 1024 832 1024 832 768 832 c 1,5,6
 1024 832 1024 832 1024 320 c 0,7,8
 1024 128 1024 128 1344 128 c 1,9,-1
 1344 -128 l 1,10,11
 768 -128 768 -128 768 320 c 0,12,13
 768 704 768 704 384 704 c 1,14,-1
 384 960 l 1,15,16
 768 960 768 960 768 1344 c 0,17,18
 768 1792 768 1792 1344 1792 c 1,0,-1
EndSplineSet
EndChar

StartChar: braceright
Encoding: 125 125 97
Width: 2048
Flags: W
LayerCount: 2
Fore
SplineSet
704 1792 m 1,0,-1
 704 1536 l 1,1,2
 1024 1536 1024 1536 1024 1344 c 0,3,4
 1024 832 1024 832 1280 832 c 1,5,6
 1024 832 1024 832 1024 320 c 0,7,8
 1024 128 1024 128 704 128 c 1,9,-1
 704 -128 l 1,10,11
 1280 -128 1280 -128 1280 320 c 0,12,13
 1280 704 1280 704 1664 704 c 1,14,-1
 1664 960 l 1,15,16
 1280 960 1280 960 1280 1344 c 0,17,18
 1280 1792 1280 1792 704 1792 c 1,0,-1
EndSplineSet
EndChar

StartChar: asciitilde
Encoding: 126 126 98
Width: 2048
Flags: W
LayerCount: 2
Fore
SplineSet
192 960 m 1,0,1
 320 1152 320 1152 640 1152 c 0,2,3
 896 1152 896 1152 1024 960 c 128,-1,4
 1152 768 1152 768 1408 768 c 0,5,6
 1728 768 1728 768 1856 960 c 1,7,8
 1856 832 1856 832 1856 704 c 1,9,10
 1728 512 1728 512 1408 512 c 0,11,12
 1152 512 1152 512 1024 704 c 128,-1,13
 896 896 896 896 640 896 c 0,14,15
 320 896 320 896 192 704 c 1,16,-1
 192 960 l 1,0,1
EndSplineSet
EndChar
